<?xml version="1.0" encoding="UTF-8" standalone="no"?><svg xmlns="http://www.w3.org/2000/svg" xmlns:xlink="http://www.w3.org/1999/xlink" contentScriptType="application/ecmascript" contentStyleType="text/css" height="1878px" preserveAspectRatio="none" style="width:2388px;height:1878px;" version="1.1" viewBox="0 0 2388 1878" width="2388px" zoomAndPan="magnify"><defs><filter height="300%" id="f12kp88i5iof0j" width="300%" x="-1" y="-1"><feGaussianBlur result="blurOut" stdDeviation="4.0"/><feColorMatrix in="blurOut" result="blurOut2" type="matrix" values="0 0 0 0 0 0 0 0 0 0 0 0 0 0 0 0 0 0 .4 0"/><feOffset dx="8.0" dy="8.0" in="blurOut2" result="blurOut3"/><feBlend in="SourceGraphic" in2="blurOut3" mode="normal"/></filter></defs><g><rect fill="#FFFFFF" height="52.9766" style="stroke:none;stroke-width:2.0;" width="480" x="940.2191" y="10"/><text fill="#000000" font-family="sans-serif" font-size="28" font-weight="bold" lengthAdjust="spacing" textLength="460" x="950.2191" y="47.0703">Kubernetes Cluster Architecture</text><!--MD5=[ae7709657f611b622ade1638c535e86e]
cluster cluster--><path d="M432.4141,205.0527 C463.3941,148.584 499.9293,132.6696 552.3702,180.3299 C600.685,121.712 647.3946,122.1391 685.7925,190.7311 C723.1558,125.5132 776.5776,133.481 809.1617,195.3698 C853.4735,125.1492 904.3347,120.4691 951.5597,192.4527 C987.9278,127.2316 1035.5757,130.1704 1081.3067,182.0814 C1119.4857,124.3217 1165.116,107.9603 1213.5053,170.8982 C1252.9861,110.4422 1306.2378,126.1485 1337.3875,179.9324 C1376.1609,116.9406 1422.8325,119.8198 1469.8704,170.2818 C1509.8222,95.4824 1583.1079,86.9766 1624.8518,168.505 C1671.5788,106.1687 1719.0351,116.7572 1754.5198,180.1037 C1791.5336,112.0066 1855.8837,116.1751 1884.1979,188.1573 C1928.6807,132.7341 1983.6555,120.8041 2019.4173,197.1093 C2058.1525,149.8836 2099.3006,139.1663 2137.2361,197.9978 C2177.5652,125.7802 2236.6322,126.8525 2279,195.9527 C2293.4565,193.3953 2302.2422,196.6784 2299.6147,213.8257 C2368.7527,252.4416 2353.5569,307.627 2298.2612,344.9585 C2356.0545,386.7787 2373.3147,439.4304 2302.9714,485.5438 C2359.1712,536.0826 2346.4591,577.7734 2288.6033,615.7237 C2353.6605,653.4546 2373.7929,719.1051 2297.5173,765.2609 C2366.8472,814.832 2355.6921,872.7846 2287.1513,912.6597 C2336.5642,947.4447 2353.7381,992.12 2292.0277,1031.466 C2360.8887,1068.0697 2348.5556,1132.8666 2289.2744,1166.8645 C2374.4382,1216.8204 2372.4847,1267.4865 2293.4603,1321.8761 C2358.1849,1366.0728 2364.3597,1430.5421 2283.8148,1464.9449 C2334.4774,1518.4291 2327.8066,1559.6411 2265,1596.9527 C2270.053,1598.1283 2271.7462,1601.6933 2268.0988,1605.8867 C2233.416,1680.5013 2169.0137,1668.2919 2132.9406,1607.2722 C2107.7337,1674.2456 2049.9372,1678.4607 2008.1957,1624.2996 C1975.4868,1691.9181 1929.4434,1686.569 1889.0736,1631.7532 C1842.6664,1689.2738 1800.2295,1693.3829 1753.5424,1632.0723 C1708.7028,1684.1855 1661.7491,1679.0915 1625.3079,1622.1929 C1573.888,1687.1267 1526.5959,1701.6866 1470.6405,1627.2254 C1435.431,1680.9009 1391.6837,1677.2167 1360.6161,1623.0016 C1326.9696,1688.9185 1257.1427,1691.6384 1214.7081,1633.323 C1173.7288,1692.0095 1119.6518,1705.7837 1076.3478,1635.8233 C1029.5301,1685.5522 989.0507,1676.937 955.2824,1620.888 C920.0579,1684.8167 846.2806,1688.456 807.6028,1624.888 C769.5547,1688.8159 719.4882,1676.9789 681.5452,1624.774 C635.3892,1690.2325 575.0767,1669.3368 543.8699,1608.4803 C491.7307,1675.8033 421.9819,1662.34 395,1582.9527 C402.3439,1576.9984 407.6228,1578.0563 412.2313,1586.2777 C346.3209,1548.7076 355.9374,1502.7569 411.0173,1463.9857 C341.7067,1418.866 339.7863,1366.8117 402.4933,1314.1801 C337.9256,1273.1235 335.2875,1232.0983 387.8955,1178.4403 C323.3302,1132.775 335.7893,1082.4732 397.3641,1045.8133 C324.7584,1005.6464 308.3111,954.5449 383.0311,899.9058 C328.5654,862.3982 326.4216,800.0583 383.8829,763.2482 C318.6349,717.2788 327.1249,660.5318 398.5546,629.5623 C325.9825,578.2138 320.8675,533.0694 399.5015,482.6958 C337.7395,446.4841 339.1025,395.14 397.5152,357.0288 C315.6056,294.4483 331.4745,234.0744 409,181.9527 C428.9674,178.0014 434.8238,186.3227 432.4141,205.0527 " fill="#FFFFFF" filter="url(#f12kp88i5iof0j)" style="stroke:#0000FF;stroke-width:4.0;"/><text fill="#000000" font-family="sans-serif" font-size="28" font-style="italic" lengthAdjust="spacing" textLength="118" x="1278" y="219.023">«Virtual»</text><text fill="#000000" font-family="sans-serif" font-size="28" font-weight="bold" lengthAdjust="spacing" textLength="104" x="1285" y="251.9996">Cluster</text><!--MD5=[10ea673caf457862023e152271927b45]
cluster controller--><polygon fill="#FFFFFF" filter="url(#f12kp88i5iof0j)" points="427,303.9527,447,283.9527,933,283.9527,933,718.9527,913,738.9527,427,738.9527,427,303.9527" style="stroke:#0000FF;stroke-width:4.0;"/><line style="stroke:#0000FF;stroke-width:4.0;" x1="913" x2="933" y1="303.9527" y2="283.9527"/><line style="stroke:#0000FF;stroke-width:4.0;" x1="427" x2="913" y1="303.9527" y2="303.9527"/><line style="stroke:#0000FF;stroke-width:4.0;" x1="913" x2="913" y1="303.9527" y2="738.9527"/><text fill="#000000" font-family="sans-serif" font-size="28" font-style="italic" lengthAdjust="spacing" textLength="152" x="596" y="337.023">«Concrete»</text><text fill="#000000" font-family="sans-serif" font-size="28" font-weight="bold" lengthAdjust="spacing" textLength="354" x="495" y="369.9996">Kubernetes Controller(s)</text><!--MD5=[9ef9e723a7c2640b25ae5770e937ed69]
cluster kube_worker_1--><polygon fill="#FFFFFF" filter="url(#f12kp88i5iof0j)" points="427,806.9527,447,786.9527,1089,786.9527,1089,1148.9527,1069,1168.9527,427,1168.9527,427,806.9527" style="stroke:#0000FF;stroke-width:4.0;"/><line style="stroke:#0000FF;stroke-width:4.0;" x1="1069" x2="1089" y1="806.9527" y2="786.9527"/><line style="stroke:#0000FF;stroke-width:4.0;" x1="427" x2="1069" y1="806.9527" y2="806.9527"/><line style="stroke:#0000FF;stroke-width:4.0;" x1="1069" x2="1069" y1="806.9527" y2="1168.9527"/><text fill="#000000" font-family="sans-serif" font-size="28" font-style="italic" lengthAdjust="spacing" textLength="152" x="674" y="840.023">«Concrete»</text><text fill="#000000" font-family="sans-serif" font-size="28" font-weight="bold" lengthAdjust="spacing" textLength="102" x="699" y="872.9996">Node 1</text><!--MD5=[dbd4e99c76f47f0e65c2c8c78908c11a]
cluster pod_A_1--><path d="M673.4328,934.2461 C680.751,921.0243 690.2708,916.4838 701.6388,929.9688 C710.8979,918.8443 720.6433,915.6386 729.3483,930.5583 C737.5806,915.26 747.0332,914.3919 757.404,928.5194 C764.8284,912.1526 776.211,910.131 787.1888,925.1469 C796.2199,910.1301 805.2001,909.937 815.7029,923.6882 C824.0853,912.8513 834.3911,909.5017 842.5988,923.8746 C853.162,910.1984 863.9959,912.9822 871.3863,927.1545 C881.5383,911.758 891.0166,911.3523 900.9311,927.3778 C908.2781,915.6079 919.6622,915.384 927.3394,927.0051 C938.3072,912.9931 949.2352,918.5086 955.7511,931.6614 C966.2949,916.4801 978.8882,917.3437 987.2677,933.8163 C1002.4422,920.5533 1019.196,926.4664 1025,944.9527 C1027.5216,943.6095 1029.4249,944.7023 1029.4011,947.5965 C1044.9991,951.3536 1047.9418,963.776 1035.1906,973.7973 C1048.6592,978.0872 1048.6828,987.1432 1039.6261,995.9444 C1055.2379,1000.3935 1059.2551,1009.9833 1047.9828,1022.7984 C1056.8713,1033.6242 1054.2615,1041.9905 1040.5061,1045.2882 C1051.3835,1055.6737 1046.3831,1067.2507 1032.6861,1069.7945 C1044.3351,1093.4928 1036.2909,1104.0394 1011,1104.9527 C1012.7094,1105.6169 1012.7596,1107.3193 1011.4858,1108.4034 C1005.3588,1123.5967 991.5184,1123.6563 983.5476,1110.2016 C976.6004,1124.3327 965.2724,1122.4315 957.5483,1110.9916 C950.1417,1123.7239 938.3532,1125.0001 929.3618,1112.782 C921.5568,1127.3594 911.7472,1125.2913 902.2849,1114.5547 C894.6669,1128.2034 881.1122,1132.5936 871.2735,1116.9018 C866.05,1131.0505 856.7787,1133.503 845.3956,1123.5024 C834.4721,1135.1352 824.349,1136.7317 814.954,1121.7539 C803.8977,1132.6083 795.81,1132.4634 789.0973,1117.4177 C779.9406,1131.3775 767.0374,1130.9813 760.0753,1115.2711 C749.3429,1129.945 734.0182,1127.5776 728.2113,1110.3512 C720.395,1123.4114 708.2532,1119.8795 702.8717,1107.8884 C681.5487,1127.6996 660.3776,1119.7479 657,1090.9527 C659.6205,1091.8699 660.0328,1093.5482 658.1613,1095.5903 C644.0993,1091.242 641.46,1082.5557 651.5598,1071.5677 C636.8006,1067.2538 633.6667,1053.6458 644.1945,1042.8472 C632.6747,1039.116 631.8867,1029.0338 640.1375,1021.5385 C628.0138,1008.3388 633.9571,999.4703 648.1988,993.984 C638.6088,986.3241 641.6467,977.3938 651.4975,972.7546 C638.6952,949.3768 641.7525,934.7124 671,930.9527 C673.3671,930.9553 674.2321,931.9046 673.4328,934.2461 " fill="#FFFFFF" filter="url(#f12kp88i5iof0j)" style="stroke:#0000FF;stroke-width:4.0;"/><text fill="#000000" font-family="sans-serif" font-size="28" font-style="italic" lengthAdjust="spacing" textLength="118" x="782" y="968.023">«Virtual»</text><text fill="#000000" font-family="sans-serif" font-size="28" font-weight="bold" lengthAdjust="spacing" textLength="84" x="799" y="1000.9996">Pod A</text><!--MD5=[7fe29c68313d7f2d04b0c0a11a3c1ed5]
cluster kube_worker_2--><polygon fill="#FFFFFF" filter="url(#f12kp88i5iof0j)" points="1137,806.9527,1157,786.9527,2247,786.9527,2247,1148.9527,2227,1168.9527,1137,1168.9527,1137,806.9527" style="stroke:#0000FF;stroke-width:4.0;"/><line style="stroke:#0000FF;stroke-width:4.0;" x1="2227" x2="2247" y1="806.9527" y2="786.9527"/><line style="stroke:#0000FF;stroke-width:4.0;" x1="1137" x2="2227" y1="806.9527" y2="806.9527"/><line style="stroke:#0000FF;stroke-width:4.0;" x1="2227" x2="2227" y1="806.9527" y2="1168.9527"/><text fill="#000000" font-family="sans-serif" font-size="28" font-style="italic" lengthAdjust="spacing" textLength="152" x="1608" y="840.023">«Concrete»</text><text fill="#000000" font-family="sans-serif" font-size="28" font-weight="bold" lengthAdjust="spacing" textLength="106" x="1631" y="872.9996">Node N</text><!--MD5=[44a4fcdf88dfb8705815145e8cbea475]
cluster pod_A_2--><path d="M1383.4328,934.2461 C1390.751,921.0243 1400.2708,916.4838 1411.6388,929.9688 C1420.8979,918.8443 1430.6433,915.6386 1439.3483,930.5583 C1447.5806,915.26 1457.0332,914.3919 1467.404,928.5194 C1474.8284,912.1526 1486.211,910.131 1497.1888,925.1469 C1506.2199,910.1301 1515.2001,909.937 1525.7029,923.6882 C1534.0853,912.8513 1544.3911,909.5017 1552.5988,923.8746 C1563.162,910.1984 1573.9959,912.9822 1581.3863,927.1545 C1591.5383,911.758 1601.0166,911.3523 1610.9311,927.3778 C1618.2781,915.6079 1629.6622,915.384 1637.3394,927.0051 C1648.3072,912.9931 1659.2352,918.5086 1665.7511,931.6614 C1676.2949,916.4801 1688.8882,917.3437 1697.2677,933.8163 C1712.4422,920.5533 1729.196,926.4664 1735,944.9527 C1737.5216,943.6095 1739.4249,944.7023 1739.4011,947.5965 C1754.9991,951.3536 1757.9418,963.776 1745.1906,973.7973 C1758.6592,978.0872 1758.6828,987.1432 1749.6261,995.9444 C1765.2379,1000.3935 1769.2551,1009.9833 1757.9828,1022.7984 C1766.8713,1033.6242 1764.2615,1041.9905 1750.5061,1045.2882 C1761.3835,1055.6737 1756.3831,1067.2507 1742.6861,1069.7945 C1754.3351,1093.4928 1746.2909,1104.0394 1721,1104.9527 C1722.7094,1105.6169 1722.7596,1107.3193 1721.4858,1108.4034 C1715.3588,1123.5967 1701.5184,1123.6563 1693.5476,1110.2016 C1686.6004,1124.3327 1675.2724,1122.4315 1667.5483,1110.9916 C1660.1417,1123.7239 1648.3532,1125.0001 1639.3618,1112.782 C1631.5568,1127.3594 1621.7472,1125.2913 1612.2849,1114.5547 C1604.6669,1128.2034 1591.1122,1132.5936 1581.2735,1116.9018 C1576.05,1131.0505 1566.7787,1133.503 1555.3956,1123.5024 C1544.4721,1135.1352 1534.349,1136.7317 1524.954,1121.7539 C1513.8977,1132.6083 1505.81,1132.4634 1499.0973,1117.4177 C1489.9406,1131.3775 1477.0374,1130.9813 1470.0753,1115.2711 C1459.3429,1129.945 1444.0182,1127.5776 1438.2113,1110.3512 C1430.395,1123.4114 1418.2532,1119.8795 1412.8717,1107.8884 C1391.5487,1127.6996 1370.3776,1119.7479 1367,1090.9527 C1369.6205,1091.8699 1370.0328,1093.5482 1368.1613,1095.5903 C1354.0993,1091.242 1351.46,1082.5557 1361.5598,1071.5677 C1346.8006,1067.2538 1343.6667,1053.6458 1354.1945,1042.8472 C1342.6747,1039.116 1341.8867,1029.0338 1350.1375,1021.5385 C1338.0138,1008.3388 1343.9571,999.4703 1358.1988,993.984 C1348.6088,986.3241 1351.6467,977.3938 1361.4975,972.7546 C1348.6952,949.3768 1351.7525,934.7124 1381,930.9527 C1383.3671,930.9553 1384.2321,931.9046 1383.4328,934.2461 " fill="#FFFFFF" filter="url(#f12kp88i5iof0j)" style="stroke:#0000FF;stroke-width:4.0;"/><text fill="#000000" font-family="sans-serif" font-size="28" font-style="italic" lengthAdjust="spacing" textLength="118" x="1492" y="968.023">«Virtual»</text><text fill="#000000" font-family="sans-serif" font-size="28" font-weight="bold" lengthAdjust="spacing" textLength="84" x="1509" y="1000.9996">Pod A</text><!--MD5=[82b765e2dcbc0bc8303b79fded92335b]
cluster pod_B_2--><path d="M1831.4328,934.2461 C1838.751,921.0243 1848.2708,916.4838 1859.6388,929.9688 C1868.8979,918.8443 1878.6433,915.6386 1887.3483,930.5583 C1895.5806,915.26 1905.0332,914.3919 1915.404,928.5194 C1922.8284,912.1526 1934.211,910.131 1945.1888,925.1469 C1954.2199,910.1301 1963.2001,909.937 1973.7029,923.6882 C1982.0853,912.8513 1992.3911,909.5017 2000.5988,923.8746 C2011.162,910.1984 2021.9959,912.9822 2029.3863,927.1545 C2039.5383,911.758 2049.0166,911.3523 2058.9311,927.3778 C2066.2781,915.6079 2077.6622,915.384 2085.3394,927.0051 C2096.3072,912.9931 2107.2352,918.5086 2113.7511,931.6614 C2124.2949,916.4801 2136.8882,917.3437 2145.2677,933.8163 C2160.4422,920.5533 2177.196,926.4664 2183,944.9527 C2185.5216,943.6095 2187.4249,944.7023 2187.4011,947.5965 C2202.9991,951.3536 2205.9418,963.776 2193.1906,973.7973 C2206.6592,978.0872 2206.6828,987.1432 2197.6261,995.9444 C2213.2379,1000.3935 2217.2551,1009.9833 2205.9828,1022.7984 C2214.8713,1033.6242 2212.2615,1041.9905 2198.5061,1045.2882 C2209.3835,1055.6737 2204.3831,1067.2507 2190.6861,1069.7945 C2202.3351,1093.4928 2194.2909,1104.0394 2169,1104.9527 C2170.7094,1105.6169 2170.7596,1107.3193 2169.4858,1108.4034 C2163.3588,1123.5967 2149.5184,1123.6563 2141.5476,1110.2016 C2134.6004,1124.3327 2123.2724,1122.4315 2115.5483,1110.9916 C2108.1417,1123.7239 2096.3532,1125.0001 2087.3618,1112.782 C2079.5568,1127.3594 2069.7472,1125.2913 2060.2849,1114.5547 C2052.6669,1128.2034 2039.1122,1132.5936 2029.2735,1116.9018 C2024.05,1131.0505 2014.7787,1133.503 2003.3956,1123.5024 C1992.4721,1135.1352 1982.349,1136.7317 1972.954,1121.7539 C1961.8977,1132.6083 1953.81,1132.4634 1947.0973,1117.4177 C1937.9406,1131.3775 1925.0374,1130.9813 1918.0753,1115.2711 C1907.3429,1129.945 1892.0182,1127.5776 1886.2113,1110.3512 C1878.395,1123.4114 1866.2532,1119.8795 1860.8717,1107.8884 C1839.5487,1127.6996 1818.3776,1119.7479 1815,1090.9527 C1817.6205,1091.8699 1818.0328,1093.5482 1816.1613,1095.5903 C1802.0993,1091.242 1799.46,1082.5557 1809.5598,1071.5677 C1794.8006,1067.2538 1791.6667,1053.6458 1802.1945,1042.8472 C1790.6747,1039.116 1789.8867,1029.0338 1798.1375,1021.5385 C1786.0138,1008.3388 1791.9571,999.4703 1806.1988,993.984 C1796.6088,986.3241 1799.6467,977.3938 1809.4975,972.7546 C1796.6952,949.3768 1799.7525,934.7124 1829,930.9527 C1831.3671,930.9553 1832.2321,931.9046 1831.4328,934.2461 " fill="#FFFFFF" filter="url(#f12kp88i5iof0j)" style="stroke:#0000FF;stroke-width:4.0;"/><text fill="#000000" font-family="sans-serif" font-size="28" font-style="italic" lengthAdjust="spacing" textLength="118" x="1940" y="968.023">«Virtual»</text><text fill="#000000" font-family="sans-serif" font-size="28" font-weight="bold" lengthAdjust="spacing" textLength="82" x="1958" y="1000.9996">Pod B</text><!--MD5=[b998ca32b7bd28c46d4a05c8236ee861]
entity c_api_gw--><rect fill="#98FB98" filter="url(#f12kp88i5iof0j)" height="72.9766" style="stroke:#0000FF;stroke-width:2.0;" width="178" x="492" y="395.9527"/><text fill="#000000" font-family="sans-serif" font-size="28" lengthAdjust="spacing" textLength="138" x="512" y="443.023">API Server</text><!--MD5=[d1ca885f78aa257b073a591354bdbc78]
entity c_mngr--><rect fill="#98FB98" filter="url(#f12kp88i5iof0j)" height="72.9766" style="stroke:#0000FF;stroke-width:2.0;" width="308" x="459" y="634.9527"/><text fill="#000000" font-family="sans-serif" font-size="28" lengthAdjust="spacing" textLength="268" x="479" y="682.023">Controller Manager</text><!--MD5=[8bd04f4aa11e9637d99d3c0f12c89e70]
entity kubelet_1--><rect fill="#98FB98" filter="url(#f12kp88i5iof0j)" height="72.9766" style="stroke:#0000FF;stroke-width:2.0;" width="144" x="459" y="1016.9527"/><text fill="#000000" font-family="sans-serif" font-size="28" lengthAdjust="spacing" textLength="104" x="479" y="1064.023">Kubelet</text><!--MD5=[05ebe79992c94fc4a552727940ece006]
entity container_A_1--><rect fill="#98FB98" filter="url(#f12kp88i5iof0j)" height="72.9766" style="stroke:#0000FF;stroke-width:2.0;" width="334" x="674" y="1016.9527"/><text fill="#000000" font-family="sans-serif" font-size="28" lengthAdjust="spacing" textLength="294" x="694" y="1064.023">Application container</text><!--MD5=[aeeb51c4c0ffbf83356f51cdde10cc7e]
entity kubelet_2--><rect fill="#98FB98" filter="url(#f12kp88i5iof0j)" height="72.9766" style="stroke:#0000FF;stroke-width:2.0;" width="144" x="1169" y="1016.9527"/><text fill="#000000" font-family="sans-serif" font-size="28" lengthAdjust="spacing" textLength="104" x="1189" y="1064.023">Kubelet</text><!--MD5=[bf10c801e35bff5aa101b9eaf69cadda]
entity container_A_2--><rect fill="#98FB98" filter="url(#f12kp88i5iof0j)" height="72.9766" style="stroke:#0000FF;stroke-width:2.0;" width="334" x="1384" y="1016.9527"/><text fill="#000000" font-family="sans-serif" font-size="28" lengthAdjust="spacing" textLength="294" x="1404" y="1064.023">Application container</text><!--MD5=[fd395f2f3cf3ab5a5cf3fa6f4a2e6f99]
entity container_B_2--><rect fill="#98FB98" filter="url(#f12kp88i5iof0j)" height="72.9766" style="stroke:#0000FF;stroke-width:2.0;" width="334" x="1832" y="1016.9527"/><text fill="#000000" font-family="sans-serif" font-size="28" lengthAdjust="spacing" textLength="294" x="1852" y="1064.023">Application container</text><!--MD5=[f861f1dc2eb8149d41e33075cef353fa]
entity service_a--><path d="M1476.6401,1225.7266 C1485.9713,1212.5868 1496.4656,1213.4786 1504.5667,1227.0143 C1510.4372,1216.063 1520.8409,1214.7332 1527.2787,1226.4457 C1533.2807,1215.851 1545.4219,1215.3368 1551.7712,1226.0464 C1559.5266,1211.7872 1571.1518,1211.5612 1578.6853,1226.2527 C1584.5966,1214.8514 1597.2193,1213.5044 1605.0706,1223.9047 C1614.5648,1214.5903 1622.4092,1212.3014 1629.467,1226.4393 C1640.0497,1232.1659 1640.4965,1243.3329 1630.9044,1250.2761 C1642.7034,1257.7567 1644.3763,1266.4429 1631.961,1274.96 C1643.1415,1284.184 1640.5224,1290.9343 1629.7278,1298.0311 C1641.0305,1304.8901 1642.0405,1312.189 1631.3467,1320.6242 C1625.2842,1335.4657 1613.6309,1334.2653 1604.964,1323.2852 C1599.7693,1336.432 1589.1797,1339.2369 1578.7496,1329.2067 C1572.8954,1341.9087 1560.9986,1346.1027 1551.054,1333.7236 C1542.0939,1344.7473 1533.8013,1342.1038 1527.939,1330.5519 C1517.8473,1340.5259 1508.4504,1338.7074 1502.7034,1325.767 C1492.5802,1336.6596 1483.634,1331.8678 1478.7129,1320.2283 C1467.8798,1317.0118 1463.3113,1306.7395 1472.7583,1298.0725 C1459.0127,1295.3451 1454.6463,1284.6532 1464.4411,1273.8446 C1455.819,1264.275 1458.7006,1253.5471 1471.451,1250.3559 C1459.9505,1239.6245 1462.2631,1231.0059 1476.6401,1225.7266 " fill="#D3D3D3" filter="url(#f12kp88i5iof0j)" style="stroke:#0000FF;stroke-width:2.0;"/><text fill="#000000" font-family="sans-serif" font-size="28" font-style="italic" lengthAdjust="spacing" textLength="118" x="1492" y="1266.023">«Virtual»</text><text fill="#000000" font-family="sans-serif" font-size="28" lengthAdjust="spacing" textLength="124" x="1489" y="1298.9996">Service A</text><!--MD5=[da4040cd8749b8929195350041ef32c7]
entity service_b--><path d="M1830.1321,1226.3452 C1836.7707,1216.0705 1846.9073,1214.0024 1853.9841,1225.8732 C1861.3536,1212.462 1873.4389,1213.5382 1879.4669,1227.1387 C1883.3448,1215.1746 1893.1429,1214.7051 1901.3754,1222.2481 C1908.8388,1211.3915 1921.0999,1211.1126 1927.982,1222.9303 C1936.8611,1211.2532 1944.6289,1213.8696 1951.2611,1225.2034 C1961.1759,1215.4881 1971.4087,1216.6864 1978.0762,1229.1325 C1990.9498,1230.3348 1995.8924,1239.7844 1987.897,1250.5541 C2002.3622,1252.1082 2006.7206,1262.9257 1996.6844,1273.7584 C2004.8873,1283.8716 2002.5492,1294.99 1988.0301,1296.4295 C1997.7015,1308.3614 1990.2752,1318.0861 1977.4985,1319.979 C1969.0445,1333.7602 1960.4385,1333.8349 1951.8983,1320.0592 C1946.3522,1331.8729 1937.5867,1331.4537 1929.3608,1323.046 C1920.2141,1336.3105 1910.299,1337.0911 1902.1263,1322.107 C1895.6724,1333.7529 1885.6884,1334.6697 1878.2744,1323.0931 C1868.7561,1333.0029 1861.4302,1331.1486 1854.1936,1320.4296 C1845.4453,1332.1073 1837.4777,1332.3422 1829.8534,1319.3219 C1816.2977,1315.2086 1817.1544,1305.8308 1824.6169,1296.8251 C1811.222,1294.1162 1804.9355,1284.8263 1814.8291,1272.6778 C1805.61,1263.1192 1809.5818,1253.4303 1820.8595,1249.1181 C1811.9877,1237.9799 1815.5763,1227.9441 1830.1321,1226.3452 " fill="#D3D3D3" filter="url(#f12kp88i5iof0j)" style="stroke:#0000FF;stroke-width:2.0;"/><text fill="#000000" font-family="sans-serif" font-size="28" font-style="italic" lengthAdjust="spacing" textLength="118" x="1842" y="1266.023">«Virtual»</text><text fill="#000000" font-family="sans-serif" font-size="28" lengthAdjust="spacing" textLength="120" x="1841" y="1298.9996">Service B</text><!--MD5=[967c2b1a156e498aabfdc089710fb9a5]
entity ingress--><path d="M1655.8021,1472.9986 C1662.5574,1462.9906 1671.8857,1462.8901 1679.0406,1472.5259 C1683.82,1459.3263 1694.1647,1459.7199 1702.1965,1469.2061 C1710.3383,1459.5859 1719.8488,1460.4871 1726.3648,1471.1439 C1732.6003,1458.7703 1745.017,1458.6274 1751.7403,1470.6362 C1759.4019,1461.1391 1768.0424,1462.0359 1774.1848,1472.3567 C1785.1595,1459.2838 1793.2589,1462.1975 1801.7532,1474.9994 C1815.0818,1477.5827 1818.6296,1488.8219 1808.2154,1498.0589 C1819.8683,1502.8379 1822.6569,1511.1973 1813.0759,1520.5625 C1821.5485,1530.5707 1817.3821,1541.2498 1805.0743,1544.2336 C1816.5067,1553.3866 1812.742,1562.8124 1800.7189,1567.5919 C1796.5209,1580.8856 1785.3654,1582.5891 1777.3627,1571.1909 C1772.6472,1583.6859 1761.235,1585.7833 1752.0327,1576.3811 C1749.3951,1590.772 1737.5445,1592.1276 1727.8455,1583.9486 C1716.6191,1595.3421 1703.95,1589.9905 1701.236,1575.2734 C1692.7334,1584.9009 1684.1795,1585.2402 1678.4681,1572.4398 C1667.4627,1581.5204 1659.236,1581.812 1652.602,1567.5878 C1638.8662,1562.9522 1638.1576,1554.616 1645.5705,1543.7437 C1632.0615,1540.1137 1628.6738,1530.5665 1637.2592,1519.3948 C1629.249,1508.7268 1633.2063,1500.6576 1645.7384,1498.2126 C1637.7375,1486.7677 1642.1547,1475.803 1655.8021,1472.9986 " fill="#D3D3D3" filter="url(#f12kp88i5iof0j)" style="stroke:#0000FF;stroke-width:2.0;"/><text fill="#000000" font-family="sans-serif" font-size="28" font-style="italic" lengthAdjust="spacing" textLength="118" x="1666" y="1512.023">«Virtual»</text><text fill="#000000" font-family="sans-serif" font-size="28" lengthAdjust="spacing" textLength="100" x="1675" y="1544.9996">Ingress</text><!--MD5=[c251b62818238b6f79269adc5bf7d1e2]
entity cli--><ellipse cx="179" cy="368.9527" fill="#FEFECE" filter="url(#f12kp88i5iof0j)" rx="16" ry="16" style="stroke:#000000;stroke-width:4.0;"/><path d="M179,384.9527 L179,438.9527 M153,400.9527 L205,400.9527 M179,438.9527 L153,468.9527 M179,438.9527 L205,468.9527 " fill="none" filter="url(#f12kp88i5iof0j)" style="stroke:#000000;stroke-width:4.0;"/><text fill="#000000" font-family="sans-serif" font-size="28" lengthAdjust="spacing" textLength="334" x="12" y="510.023">Command Line Interface</text><!--MD5=[ca62b0302fe1d253e589290bd9031d67]
entity ext_call--><ellipse cx="1725" cy="1720.9527" fill="#FEFECE" filter="url(#f12kp88i5iof0j)" rx="16" ry="16" style="stroke:#000000;stroke-width:4.0;"/><path d="M1725,1736.9527 L1725,1790.9527 M1699,1752.9527 L1751,1752.9527 M1725,1790.9527 L1699,1820.9527 M1725,1790.9527 L1751,1820.9527 " fill="none" filter="url(#f12kp88i5iof0j)" style="stroke:#000000;stroke-width:4.0;"/><text fill="#000000" font-family="sans-serif" font-size="28" lengthAdjust="spacing" textLength="262" x="1594" y="1862.023">Calls to application</text><!--MD5=[cf3a9bf2f149d4411c410e6232d73a63]
link c_api_gw to c_mngr--><path d="M585.66,468.1327 C591.26,509.3727 600.74,578.8527 606.92,624.2927 " fill="none" id="c_api_gw-to-c_mngr" style="stroke:#0000FF;stroke-width:2.0;"/><polygon fill="#0000FF" points="608.34,634.7327,613.7981,615.8063,606.9698,624.827,597.949,617.9987,608.34,634.7327" style="stroke:#0000FF;stroke-width:2.0;"/><!--MD5=[5f1f1e5b6c075e4e9b34fb1391d5d35d]
reverse link container_A_1 to service_a--><path d="M916.82,1093.5927 C975.62,1122.2127 1059.84,1160.3927 1137,1184.9527 C1245.02,1219.3327 1373.46,1243.1727 1458.3,1256.6727 " fill="none" id="container_A_1-backto-service_a" style="stroke:#0000FF;stroke-width:2.0;"/><polygon fill="#0000FF" points="907.62,1089.0727,920.2583,1104.1815,916.5983,1093.4761,927.3037,1089.8161,907.62,1089.0727" style="stroke:#0000FF;stroke-width:2.0;"/><!--MD5=[76e03a8da90f6d2f14553b45893eca36]
reverse link container_A_2 to service_a--><path d="M1551,1099.7327 C1551,1131.2727 1551,1173.8927 1551,1208.5927 " fill="none" id="container_A_2-backto-service_a" style="stroke:#0000FF;stroke-width:2.0;"/><polygon fill="#0000FF" points="1551,1089.4927,1543,1107.4927,1551,1099.4927,1559,1107.4927,1551,1089.4927" style="stroke:#0000FF;stroke-width:2.0;"/><!--MD5=[82786db851401a509681423885332549]
reverse link container_B_2 to service_b--><path d="M1978.96,1098.9127 C1964.54,1130.5327 1944.92,1173.5927 1928.96,1208.5927 " fill="none" id="container_B_2-backto-service_b" style="stroke:#0000FF;stroke-width:2.0;"/><polygon fill="#0000FF" points="1983.26,1089.4927,1968.5286,1102.5689,1979.122,1098.5964,1983.0945,1109.1897,1983.26,1089.4927" style="stroke:#0000FF;stroke-width:2.0;"/><!--MD5=[a6469b7f271a787c0db9f355e5841576]
reverse link service_a to ingress--><path d="M1601.22,1343.7927 C1626.46,1378.9127 1656.8,1421.0927 1681.1,1454.9127 " fill="none" id="service_a-backto-ingress" style="stroke:#0000FF;stroke-width:2.0;"/><polygon fill="#0000FF" points="1594.9,1335.0127,1598.9037,1354.2992,1600.734,1343.1346,1611.8987,1344.9648,1594.9,1335.0127" style="stroke:#0000FF;stroke-width:2.0;"/><!--MD5=[62dc1bfc505047b2895c34d6efd4f5f3]
reverse link service_b to ingress--><path d="M1850.22,1343.7927 C1824.66,1378.9127 1794,1421.0927 1769.4,1454.9127 " fill="none" id="service_b-backto-ingress" style="stroke:#0000FF;stroke-width:2.0;"/><polygon fill="#0000FF" points="1856.58,1335.0127,1839.5189,1344.8574,1850.6949,1343.0976,1852.4547,1354.2736,1856.58,1335.0127" style="stroke:#0000FF;stroke-width:2.0;"/><!--MD5=[0ba193b5b5dada76c8986af95de01a21]
link c_mngr to kubelet_1--><path d="M605.58,707.1727 C590.68,775.8727 557.12,930.5327 540.58,1006.7727 " fill="none" id="c_mngr-to-kubelet_1" style="stroke:#0000FF;stroke-width:2.0;"/><polygon fill="#0000FF" points="538.46,1016.5527,550.0857,1000.6517,540.5748,1006.7789,534.4476,997.268,538.46,1016.5527" style="stroke:#0000FF;stroke-width:2.0;"/><!--MD5=[09ed00d0819bd6560ff29c9df1ca3c7e]
link c_mngr to kubelet_2--><path d="M767.12,681.4927 C853.64,692.5327 960.12,717.0527 1041,770.9527 C1130.18,830.3927 1192.6,944.0327 1221.96,1006.7127 " fill="none" id="c_mngr-to-kubelet_2" style="stroke:#0000FF;stroke-width:2.0;"/><polygon fill="#0000FF" points="1226.38,1016.3127,1226.0888,996.6171,1222.184,1007.2356,1211.5655,1003.3308,1226.38,1016.3127" style="stroke:#0000FF;stroke-width:2.0;"/><!--MD5=[cbc05ccc6161b100bbf57798ece3ba83]
link cli to c_api_gw--><path d="M346.24,431.9527 C391.14,431.9527 436.04,431.9527 480.94,431.9527 " fill="none" id="cli-to-c_api_gw" style="stroke:#0000FF;stroke-width:2.0;"/><polygon fill="#0000FF" points="491.14,431.9527,473.14,423.9527,481.14,431.9527,473.14,439.9527,491.14,431.9527" style="stroke:#0000FF;stroke-width:2.0;"/><!--MD5=[79feced4351fd6a69fb3c2dbf2977874]
reverse link ingress to ext_call--><path d="M1725,1591.5727 C1725,1625.1327 1725,1665.3127 1725,1700.0727 " fill="none" id="ingress-backto-ext_call" style="stroke:#0000FF;stroke-width:2.0;"/><polygon fill="#0000FF" points="1725,1581.3727,1717,1599.3727,1725,1591.3727,1733,1599.3727,1725,1581.3727" style="stroke:#0000FF;stroke-width:2.0;"/><!--MD5=[686a8a05d8d0b2305404a8a48977ce13]
@startuml
<style>
' TODO: Export to a generic style sheet
componentDiagram {
    LineColor blue
    TextColor blue

    agent {
        BackGroundColor palegreen
    }
    .Virtual {
        BackGroundColor lightgray
    }
    database {
        BackGroundColor white
    }
    actor {
        LineColor black
    }
}
document {
  BackGroundColor white
}
</style>

title Kubernetes Cluster Architecture

actor "Command Line Interface" as cli
actor "Calls to application" as ext_call

cloud Cluster as cluster <<Virtual>> {
    node "Kubernetes Controller(s)" as controller <<Concrete>> {
        agent "API Server" as c_api_gw
        agent "Controller Manager" as c_mngr

        c_api_gw - -> c_mngr
    }

    node "Node 1" as kube_worker_1 <<Concrete>> {
        agent "Kubelet" as kubelet_1
        cloud "Pod A" as pod_A_1 <<Virtual>> {
            agent "Application container" as container_A_1
        }

'        kubelet_1 - -> container_A_1
    }

    node "Node N" as kube_worker_2 <<Concrete>> {
        agent "Kubelet" as kubelet_2
        cloud "Pod A" as pod_A_2 <<Virtual>> {
            agent "Application container" as container_A_2
        }
        cloud "Pod B" as pod_B_2 <<Virtual>> {
            agent "Application container" as container_B_2
        }

'        kubelet_2 - -> container_A_2
'        kubelet_2 - -> container_B_2
    }

    cloud "Service A" as service_a <<Virtual>> {
    }

    cloud "Service B" as service_b <<Virtual>> {
    }

    cloud "Ingress" as ingress <<Virtual>> {
    }

    container_A_1 <- - service_a
    container_A_2 <- - service_a
    container_B_2 <- - service_b

    service_a <- - ingress
    service_b <- - ingress
}

c_mngr - -> kubelet_1
c_mngr - -> kubelet_2

cli -> c_api_gw
ingress <- - ext_call
@enduml

@startuml
<style>
componentDiagram {
    LineColor blue
    TextColor blue

    agent {
        BackGroundColor palegreen
    }
    .Virtual {
        BackGroundColor lightgray
    }
    database {
        BackGroundColor white
    }
    actor {
        LineColor black
    }
}
document {
  BackGroundColor white
}
</style>

title Kubernetes Cluster Architecture

actor "Command Line Interface" as cli
actor "Calls to application" as ext_call

cloud Cluster as cluster <<Virtual>> {
    node "Kubernetes Controller(s)" as controller <<Concrete>> {
        agent "API Server" as c_api_gw
        agent "Controller Manager" as c_mngr

        c_api_gw - -> c_mngr
    }

    node "Node 1" as kube_worker_1 <<Concrete>> {
        agent "Kubelet" as kubelet_1
        cloud "Pod A" as pod_A_1 <<Virtual>> {
            agent "Application container" as container_A_1
        }

    }

    node "Node N" as kube_worker_2 <<Concrete>> {
        agent "Kubelet" as kubelet_2
        cloud "Pod A" as pod_A_2 <<Virtual>> {
            agent "Application container" as container_A_2
        }
        cloud "Pod B" as pod_B_2 <<Virtual>> {
            agent "Application container" as container_B_2
        }

    }

    cloud "Service A" as service_a <<Virtual>> {
    }

    cloud "Service B" as service_b <<Virtual>> {
    }

    cloud "Ingress" as ingress <<Virtual>> {
    }

    container_A_1 <- - service_a
    container_A_2 <- - service_a
    container_B_2 <- - service_b

    service_a <- - ingress
    service_b <- - ingress
}

c_mngr - -> kubelet_1
c_mngr - -> kubelet_2

cli -> c_api_gw
ingress <- - ext_call
@enduml

PlantUML version 1.2021.4(Sun Apr 04 10:49:39 CEST 2021)
(GPL source distribution)
Java Runtime: OpenJDK Runtime Environment
JVM: OpenJDK 64-Bit Server VM
Default Encoding: UTF-8
Language: fr
Country: LU
--></g></svg>