<?xml version="1.0" encoding="UTF-8" standalone="no"?><svg xmlns="http://www.w3.org/2000/svg" xmlns:xlink="http://www.w3.org/1999/xlink" contentScriptType="application/ecmascript" contentStyleType="text/css" height="1384px" preserveAspectRatio="none" style="width:1552px;height:1384px;" version="1.1" viewBox="0 0 1552 1384" width="1552px" zoomAndPan="magnify"><defs><filter height="300%" id="f1qemp2yfg4364" width="300%" x="-1" y="-1"><feGaussianBlur result="blurOut" stdDeviation="3.2000000000000006"/><feColorMatrix in="blurOut" result="blurOut2" type="matrix" values="0 0 0 0 0 0 0 0 0 0 0 0 0 0 0 0 0 0 .4 0"/><feOffset dx="6.400000000000001" dy="6.400000000000001" in="blurOut2" result="blurOut3"/><feBlend in="SourceGraphic" in2="blurOut3" mode="normal"/></filter></defs><g><!--MD5=[ae7709657f611b622ade1638c535e86e]
cluster cluster--><polygon fill="#FFFFFF" filter="url(#f1qemp2yfg4364)" points="25.6,25.6,41.6,9.6,1524.8,9.6,1524.8,1194.4,1508.8,1210.4,25.6,1210.4,25.6,25.6" style="stroke:#00008B;stroke-width:3.2000000000000006;"/><line style="stroke:#00008B;stroke-width:3.2000000000000006;" x1="1508.8" x2="1524.8" y1="25.6" y2="9.6"/><line style="stroke:#00008B;stroke-width:3.2000000000000006;" x1="25.6" x2="1508.8" y1="25.6" y2="25.6"/><line style="stroke:#00008B;stroke-width:3.2000000000000006;" x1="1508.8" x2="1508.8" y1="25.6" y2="1210.4"/><text fill="#000000" font-family="sans-serif" font-size="22.4" font-weight="bold" lengthAdjust="spacing" textLength="83.2" x="727.2" y="52.0563">Cluster</text><!--MD5=[da4659bb21c015cf3403e413d86114fa]
cluster ns--><polygon fill="#D3D3D3" filter="url(#f1qemp2yfg4364)" points="64,180.8,80,164.8,1486.4,164.8,1486.4,1156,1470.4,1172,64,1172,64,180.8" style="stroke:#00008B;stroke-width:3.2000000000000006;"/><line style="stroke:#00008B;stroke-width:3.2000000000000006;" x1="1470.4" x2="1486.4" y1="180.8" y2="164.8"/><line style="stroke:#00008B;stroke-width:3.2000000000000006;" x1="64" x2="1470.4" y1="180.8" y2="180.8"/><line style="stroke:#00008B;stroke-width:3.2000000000000006;" x1="1470.4" x2="1470.4" y1="180.8" y2="1172"/><text fill="#000000" font-family="sans-serif" font-size="22.4" font-style="italic" lengthAdjust="spacing" textLength="147.2" x="695.2" y="207.2563">«Namespace»</text><text fill="#000000" font-family="sans-serif" font-size="22.4" font-weight="bold" lengthAdjust="spacing" textLength="84.8" x="726.4" y="233.6375">Default</text><!--MD5=[9ef9e723a7c2640b25ae5770e937ed69]
cluster kube_worker_1--><polygon fill="#FFFFFF" filter="url(#f1qemp2yfg4364)" points="1084.8,296,1100.8,280,1435.2,280,1435.2,753.6,1419.2,769.6,1084.8,769.6,1084.8,296" style="stroke:#00008B;stroke-width:3.2000000000000006;"/><line style="stroke:#00008B;stroke-width:3.2000000000000006;" x1="1419.2" x2="1435.2" y1="296" y2="280"/><line style="stroke:#00008B;stroke-width:3.2000000000000006;" x1="1084.8" x2="1419.2" y1="296" y2="296"/><line style="stroke:#00008B;stroke-width:3.2000000000000006;" x1="1419.2" x2="1419.2" y1="296" y2="769.6"/><text fill="#000000" font-family="sans-serif" font-size="22.4" font-style="italic" lengthAdjust="spacing" textLength="192" x="1157.6" y="322.4563">«Virtual Machine»</text><text fill="#000000" font-family="sans-serif" font-size="22.4" font-weight="bold" lengthAdjust="spacing" textLength="81.6" x="1212.8" y="348.8375">Node 1</text><!--MD5=[dbd4e99c76f47f0e65c2c8c78908c11a]
cluster pod_A_1--><path d="M1174.5625,409.5239 C1178.9628,400.7263 1186.0385,401.4881 1191.5209,408.3521 C1197.5804,399.574 1206.5351,398.6853 1212.6079,408.3368 C1218.3269,400.0545 1224.2082,398.2768 1231.2991,406.8121 C1235.8696,396.2503 1243.6966,396.1227 1250.4677,404.5961 C1254.8872,396.4057 1259.6987,395.2394 1266.4716,402.0925 C1273.8601,393.7114 1281.6821,392.0447 1287.6113,403.6371 C1294.6832,394.4729 1300.7534,396.9328 1306.2688,405.2942 C1311.7127,396.5208 1319.8343,396.8892 1324.2428,406.3168 C1331.3339,398.8566 1337.4671,400.6184 1341.2976,409.6822 C1353.9677,399.7183 1367.6399,400.5427 1371.2,419.2 C1371.4043,419.0875 1371.5261,419.142 1371.5506,419.3799 C1384.0973,424.2004 1385.6932,432.0403 1376.549,441.7151 C1385.1872,447.2127 1385.4236,453.1535 1377.2294,459.3023 C1387.8967,463.9664 1388.0484,472.3313 1379.4663,479.1634 C1389.8533,485.6058 1391.0635,493.647 1379.8186,500.4474 C1386.6842,506.9735 1385.5655,513.2889 1376.5622,516.6197 C1385.8626,535.2545 1381.925,545.4767 1360,547.2 C1360.7344,547.2029 1361.1491,547.6895 1360.6939,548.3875 C1355.9004,558.1735 1349.0288,559.7507 1341.6098,551.1062 C1336.8498,559.3652 1327.9556,560.3695 1322.9477,551.3744 C1320.2067,560.2365 1312.5396,562.0013 1306.3162,555.033 C1300.7188,564.4603 1290.957,563.4506 1285.4651,554.9107 C1279.6961,563.0799 1274.0791,563.6245 1267.2307,556.1706 C1261.2922,564.8243 1253.668,564.5103 1247.7994,556.0911 C1240.1271,563.8847 1234.6768,561.9852 1229.6759,553.1752 C1223.7095,560.524 1217.2376,560.7815 1213.1457,551.3307 C1206.0969,560.7512 1199.0307,559.6315 1194.0605,549.3203 C1178.4017,562.4708 1164.264,554.5167 1161.6,536 C1162.837,534.9952 1164.1566,535.2041 1164.5446,536.9191 C1153.5817,532.6393 1151.7573,524.0519 1161.7343,516.8412 C1152.4773,513.1475 1153.1299,505.5096 1159.4912,499.7643 C1149.7836,493.2306 1150.3368,485.5173 1159.865,479.3356 C1151.185,473.3927 1148.9448,464.9251 1159.9614,459.076 C1150.1627,452.296 1152.4643,445.0638 1160.9416,439.1844 C1151.0397,424.9093 1153.976,411.3516 1172.8,408 C1173.9887,407.557 1174.9369,408.159 1174.5625,409.5239 " fill="#FFFFFF" filter="url(#f1qemp2yfg4364)" style="stroke:#00008B;stroke-width:3.2000000000000006;"/><text fill="#000000" font-family="sans-serif" font-size="22.4" font-style="italic" lengthAdjust="spacing" textLength="64" x="1234.4" y="437.6563">«Pod»</text><text fill="#000000" font-family="sans-serif" font-size="22.4" font-weight="bold" lengthAdjust="spacing" textLength="209.6" x="1161.6" y="464.0375">my-web-server-1</text><!--MD5=[7fe29c68313d7f2d04b0c0a11a3c1ed5]
cluster kube_worker_2--><polygon fill="#FFFFFF" filter="url(#f1qemp2yfg4364)" points="396.8,296,412.8,280,1020.8,280,1020.8,753.6,1004.8,769.6,396.8,769.6,396.8,296" style="stroke:#00008B;stroke-width:3.2000000000000006;"/><line style="stroke:#00008B;stroke-width:3.2000000000000006;" x1="1004.8" x2="1020.8" y1="296" y2="280"/><line style="stroke:#00008B;stroke-width:3.2000000000000006;" x1="396.8" x2="1004.8" y1="296" y2="296"/><line style="stroke:#00008B;stroke-width:3.2000000000000006;" x1="1004.8" x2="1004.8" y1="296" y2="769.6"/><text fill="#000000" font-family="sans-serif" font-size="22.4" font-style="italic" lengthAdjust="spacing" textLength="192" x="606.4" y="322.4563">«Virtual Machine»</text><text fill="#000000" font-family="sans-serif" font-size="22.4" font-weight="bold" lengthAdjust="spacing" textLength="81.6" x="661.6" y="348.8375">Node 2</text><!--MD5=[44a4fcdf88dfb8705815145e8cbea475]
cluster pod_A_2--><path d="M760.1625,409.5239 C764.5628,400.7263 771.6385,401.4881 777.1209,408.3521 C783.1804,399.574 792.1351,398.6853 798.2079,408.3368 C803.9269,400.0545 809.8082,398.2768 816.8991,406.8121 C821.4696,396.2503 829.2966,396.1227 836.0677,404.5961 C840.4872,396.4057 845.2987,395.2394 852.0716,402.0925 C859.4601,393.7114 867.2821,392.0447 873.2113,403.6371 C880.2832,394.4729 886.3534,396.9328 891.8688,405.2942 C897.3127,396.5208 905.4343,396.8892 909.8428,406.3168 C916.9339,398.8566 923.0671,400.6184 926.8976,409.6822 C939.5677,399.7183 953.2399,400.5427 956.8,419.2 C957.0043,419.0875 957.1261,419.142 957.1506,419.3799 C969.6973,424.2004 971.2932,432.0403 962.149,441.7151 C970.7872,447.2127 971.0236,453.1535 962.8294,459.3023 C973.4967,463.9664 973.6484,472.3313 965.0663,479.1634 C975.4533,485.6058 976.6635,493.647 965.4186,500.4474 C972.2842,506.9735 971.1655,513.2889 962.1622,516.6197 C971.4626,535.2545 967.525,545.4767 945.6,547.2 C946.3344,547.2029 946.7491,547.6895 946.2939,548.3875 C941.5004,558.1735 934.6288,559.7507 927.2098,551.1062 C922.4498,559.3652 913.5556,560.3695 908.5477,551.3744 C905.8067,560.2365 898.1396,562.0013 891.9162,555.033 C886.3188,564.4603 876.557,563.4506 871.0651,554.9107 C865.2961,563.0799 859.6791,563.6245 852.8307,556.1706 C846.8922,564.8243 839.268,564.5103 833.3994,556.0911 C825.7271,563.8847 820.2768,561.9852 815.2759,553.1752 C809.3095,560.524 802.8376,560.7815 798.7457,551.3307 C791.6969,560.7512 784.6307,559.6315 779.6605,549.3203 C764.0017,562.4708 749.864,554.5167 747.2,536 C748.437,534.9952 749.7566,535.2041 750.1446,536.9191 C739.1817,532.6393 737.3573,524.0519 747.3343,516.8412 C738.0773,513.1475 738.7299,505.5096 745.0912,499.7643 C735.3836,493.2306 735.9368,485.5173 745.465,479.3356 C736.785,473.3927 734.5448,464.9251 745.5614,459.076 C735.7627,452.296 738.0643,445.0638 746.5416,439.1844 C736.6397,424.9093 739.576,411.3516 758.4,408 C759.5887,407.557 760.5369,408.159 760.1625,409.5239 " fill="#FFFFFF" filter="url(#f1qemp2yfg4364)" style="stroke:#00008B;stroke-width:3.2000000000000006;"/><text fill="#000000" font-family="sans-serif" font-size="22.4" font-style="italic" lengthAdjust="spacing" textLength="64" x="820" y="437.6563">«Pod»</text><text fill="#000000" font-family="sans-serif" font-size="22.4" font-weight="bold" lengthAdjust="spacing" textLength="209.6" x="747.2" y="464.0375">my-web-server-2</text><!--MD5=[82b765e2dcbc0bc8303b79fded92335b]
cluster pod_B_2--><path d="M486.5625,409.5239 C490.9628,400.7263 498.0385,401.4881 503.5209,408.3521 C509.5804,399.574 518.5351,398.6853 524.6079,408.3368 C530.3269,400.0545 536.2082,398.2768 543.2991,406.8121 C547.8696,396.2503 555.6966,396.1227 562.4677,404.5961 C566.8872,396.4057 571.6987,395.2394 578.4716,402.0925 C585.8601,393.7114 593.6821,392.0447 599.6113,403.6371 C606.6832,394.4729 612.7534,396.9328 618.2688,405.2942 C623.7127,396.5208 631.8343,396.8892 636.2428,406.3168 C643.3339,398.8566 649.4671,400.6184 653.2976,409.6822 C665.9677,399.7183 679.6399,400.5427 683.2,419.2 C683.4043,419.0875 683.5261,419.142 683.5506,419.3799 C696.0973,424.2004 697.6932,432.0403 688.549,441.7151 C697.1872,447.2127 697.4236,453.1535 689.2294,459.3023 C699.8967,463.9664 700.0484,472.3313 691.4663,479.1634 C701.8533,485.6058 703.0635,493.647 691.8186,500.4474 C698.6842,506.9735 697.5655,513.2889 688.5622,516.6197 C697.8626,535.2545 693.925,545.4767 672,547.2 C672.7344,547.2029 673.1491,547.6895 672.6939,548.3875 C667.9004,558.1735 661.0288,559.7507 653.6098,551.1062 C648.8498,559.3652 639.9556,560.3695 634.9477,551.3744 C632.2067,560.2365 624.5396,562.0013 618.3162,555.033 C612.7188,564.4603 602.957,563.4506 597.4651,554.9107 C591.6961,563.0799 586.0791,563.6245 579.2307,556.1706 C573.2922,564.8243 565.668,564.5103 559.7994,556.0911 C552.1271,563.8847 546.6768,561.9852 541.6759,553.1752 C535.7095,560.524 529.2376,560.7815 525.1457,551.3307 C518.0969,560.7512 511.0307,559.6315 506.0605,549.3203 C490.4017,562.4708 476.264,554.5167 473.6,536 C474.837,534.9952 476.1566,535.2041 476.5446,536.9191 C465.5817,532.6393 463.7573,524.0519 473.7343,516.8412 C464.4773,513.1475 465.1299,505.5096 471.4912,499.7643 C461.7836,493.2306 462.3368,485.5173 471.865,479.3356 C463.185,473.3927 460.9448,464.9251 471.9614,459.076 C462.1627,452.296 464.4643,445.0638 472.9416,439.1844 C463.0397,424.9093 465.976,411.3516 484.8,408 C485.9887,407.557 486.9369,408.159 486.5625,409.5239 " fill="#FFFFFF" filter="url(#f1qemp2yfg4364)" style="stroke:#00008B;stroke-width:3.2000000000000006;"/><text fill="#000000" font-family="sans-serif" font-size="22.4" font-style="italic" lengthAdjust="spacing" textLength="64" x="546.4" y="437.6563">«Pod»</text><text fill="#000000" font-family="sans-serif" font-size="22.4" font-weight="bold" lengthAdjust="spacing" textLength="209.6" x="473.6" y="464.0375">my-web-server-3</text><path d="M495.2,73.6 L495.2,138.5938 L1012,138.5938 L1012,89.6 L996,73.6 L495.2,73.6 " fill="#FBFB77" filter="url(#f1qemp2yfg4364)" style="stroke:#A80036;stroke-width:1.6000000000000003;"/><path d="M996,73.6 L996,89.6 L1012,89.6 L996,73.6 " fill="#FBFB77" style="stroke:#A80036;stroke-width:1.6000000000000003;"/><text fill="#000000" font-family="sans-serif" font-size="20.8" lengthAdjust="spacing" textLength="483.2" x="504.8" y="101.7094">The Nodes can be used by any other namespace</text><text fill="#000000" font-family="sans-serif" font-size="20.8" lengthAdjust="spacing" textLength="174.4" x="504.8" y="126.2063">at the same time.</text><!--MD5=[84858f3533922ba37c13f4b7e9ad6732]
entity proxy_1--><rect fill="#98FB98" filter="url(#f1qemp2yfg4364)" height="58.3813" style="stroke:#00008B;stroke-width:1.6000000000000003;" width="163.2" x="1139.2" y="673.6"/><text fill="#000000" font-family="sans-serif" font-size="22.4" lengthAdjust="spacing" textLength="131.2" x="1155.2" y="711.2563">Kube-Proxy</text><!--MD5=[05ebe79992c94fc4a552727940ece006]
entity container_A_1--><rect fill="#98FB98" filter="url(#f1qemp2yfg4364)" height="58.3813" style="stroke:#00008B;stroke-width:1.6000000000000003;" width="97.6" x="1175.2" y="476.8"/><text fill="#000000" font-family="sans-serif" font-size="22.4" lengthAdjust="spacing" textLength="65.6" x="1191.2" y="514.4563">Nginx</text><!--MD5=[6a448ea47697550857a2487923e142fa]
entity proxy_2--><rect fill="#98FB98" filter="url(#f1qemp2yfg4364)" height="58.3813" style="stroke:#00008B;stroke-width:1.6000000000000003;" width="163.2" x="769.6" y="673.6"/><text fill="#000000" font-family="sans-serif" font-size="22.4" lengthAdjust="spacing" textLength="131.2" x="785.6" y="711.2563">Kube-Proxy</text><!--MD5=[bf10c801e35bff5aa101b9eaf69cadda]
entity container_A_2--><rect fill="#98FB98" filter="url(#f1qemp2yfg4364)" height="58.3813" style="stroke:#00008B;stroke-width:1.6000000000000003;" width="97.6" x="802.4" y="476.8"/><text fill="#000000" font-family="sans-serif" font-size="22.4" lengthAdjust="spacing" textLength="65.6" x="818.4" y="514.4563">Nginx</text><!--MD5=[fd395f2f3cf3ab5a5cf3fa6f4a2e6f99]
entity container_B_2--><rect fill="#98FB98" filter="url(#f1qemp2yfg4364)" height="58.3813" style="stroke:#00008B;stroke-width:1.6000000000000003;" width="97.6" x="572" y="476.8"/><text fill="#000000" font-family="sans-serif" font-size="22.4" lengthAdjust="spacing" textLength="65.6" x="588" y="514.4563">Nginx</text><!--MD5=[f861f1dc2eb8149d41e33075cef353fa]
entity service_a--><path d="M863.0006,865.5199 C870.2784,853.5695 879.509,854.4361 886.5533,865.7563 C894.9673,853.3278 904.0431,852.0775 913.6035,864.5088 C920.9592,849.119 930.0988,849.3083 940.2326,861.8613 C948.6819,851.1699 957.379,850.3389 964.9027,862.8456 C971.3987,853.0643 982.1826,851.1171 988.5269,863.011 C994.9842,849.932 1005.7215,848.6972 1014.5981,860.4732 C1022.6675,849.1196 1029.7465,851.1809 1037.2308,861.0957 C1044.5899,848.76 1053.4774,848.0139 1061.3711,860.5775 C1070.5854,848.224 1081.2692,849.4504 1087.2345,863.7324 C1092.8153,850.3324 1101.1297,849.1253 1110.5339,860.0738 C1118.7063,848.8801 1130.4226,850.0463 1136.3538,862.5188 C1144.0895,852.1283 1156.1466,853.8307 1161.9467,864.8342 C1169.5251,852.7414 1181.3676,854.0641 1188.6409,865.1851 C1192.9139,855.4717 1203.2183,851.8345 1210.2218,862.2589 C1233.1243,864.0151 1243.4126,878.8324 1229.0651,899.4578 C1243.9255,921.3369 1231.9559,937.5637 1208.949,941.1894 C1201.3524,949.2548 1193.2972,947.9185 1187.9565,938.4834 C1183.5179,951.9251 1172.3312,953.8335 1163.2497,943.2601 C1155.7061,953.7415 1145.4513,954.119 1138.7817,942.3011 C1130.615,954.3087 1119.6002,956.1425 1110.113,943.8597 C1102.2265,955.5121 1093.4984,955.6741 1085.3077,944.1859 C1080.889,957.7262 1070.3567,957.5199 1062.3696,947.688 C1055.9547,957.3585 1044.8837,960.1654 1038.9759,947.1647 C1030.375,958.048 1019.3377,958.1615 1013.7943,944.0806 C1006.2278,954.8193 998.349,956.0257 989.0286,946.1921 C978.6806,955.1413 971.1385,954.7544 965.0273,941.593 C955.9589,956.7318 945.1802,955.824 936.1036,941.6011 C928.537,952.3349 919.5232,951.9021 912.6047,940.9003 C905.2495,950.9746 896.8932,951.3897 888.7393,941.8732 C879.3596,953.725 871.2899,951.0835 863.3407,940.2701 C843.8482,928.466 840.4938,914.1859 861.7114,900.7053 C845.1934,889.6353 845.2971,875.336 863.0006,865.5199 " fill="#FFFFFF" filter="url(#f1qemp2yfg4364)" style="stroke:#00008B;stroke-width:1.6000000000000003;"/><text fill="#000000" font-family="sans-serif" font-size="22.4" font-style="italic" lengthAdjust="spacing" textLength="99.2" x="985.6" y="894.4563">«Service»</text><text fill="#000000" font-family="sans-serif" font-size="22.4" lengthAdjust="spacing" textLength="324.8" x="872.8" y="920.8375">simple-web-service-clusterip</text><!--MD5=[967c2b1a156e498aabfdc089710fb9a5]
entity ingress--><path d="M914.383,1059.6044 C920.5528,1049.6595 929.8612,1048.9974 936.6037,1058.9653 C943.2501,1050.3748 949.7791,1050.7928 955.1849,1060.243 C961.4552,1050.8554 970.7144,1049.9403 976.7694,1060.4762 C981.3551,1050.3087 989.3207,1051.9796 994.9178,1059.4346 C1000.5658,1049.9453 1009.4252,1046.7304 1017.04,1057.2615 C1024.8409,1046.2532 1032.394,1047.0759 1038.6256,1058.7546 C1045.5302,1048.6463 1052.477,1051.0806 1058.5872,1059.6056 C1062.7523,1049.7321 1071.2125,1049.2647 1076.9567,1058.0511 C1084.9553,1047.6738 1091.3352,1049.5377 1097.3208,1060.0166 C1102.7029,1049.3946 1113.585,1047.8895 1119.7875,1059.1752 C1126.5589,1047.7664 1132.8157,1049.62 1140.2285,1058.5299 C1147.9521,1049.4855 1154.7386,1051.1221 1160.2672,1060.8704 C1169.6186,1065.0126 1168.0441,1072.2347 1161.4896,1077.5431 C1171.3898,1084.0618 1171.799,1090.9123 1161.9962,1097.9208 C1172.3385,1104.5121 1170.8961,1111.9506 1161.4518,1118.0056 C1169.9346,1123.6795 1169.1271,1129.9546 1160.1824,1134.2682 C1154.3957,1145.2086 1147.1196,1145.4368 1138.751,1137.1454 C1132.8286,1145.6468 1127.2108,1148.1219 1120.1134,1138.3434 C1114.382,1150.9097 1106.3534,1151.843 1097.8997,1140.9177 C1092.6977,1151.4996 1082.696,1152.9211 1076.3956,1142.0171 C1072.1883,1151.8166 1063.7032,1152.182 1058.6448,1142.805 C1051.704,1153.0373 1043.5257,1154.1996 1035.3998,1144.1642 C1029.6255,1154.4797 1022.3758,1153.9479 1015.4726,1145.3539 C1008.2204,1152.3634 998.2844,1152.3276 995.0756,1140.8845 C990.0592,1150.4076 980.1698,1149.9872 974.9901,1141.0624 C969.441,1149.9376 960.5968,1150.3647 955.7647,1140.3332 C948,1148.8857 938.5989,1147.3778 934.5766,1136.2948 C927.8627,1145.3326 919.1764,1144.0371 914.5986,1134.0516 C905.008,1132.1578 901.9428,1126.6672 907.7433,1118.1417 C897.2522,1114.4054 894.7522,1105.8008 901.4442,1096.9557 C894.9943,1089.307 898.1771,1082.7772 907.0828,1080.3393 C899.8251,1069.9073 902.1892,1063.1879 914.383,1059.6044 " fill="#FFFFFF" filter="url(#f1qemp2yfg4364)" style="stroke:#00008B;stroke-width:1.6000000000000003;"/><text fill="#000000" font-family="sans-serif" font-size="22.4" font-style="italic" lengthAdjust="spacing" textLength="102.4" x="984" y="1091.2563">«Ingress»</text><text fill="#000000" font-family="sans-serif" font-size="22.4" lengthAdjust="spacing" textLength="222.4" x="924" y="1117.6375">simple-web-ingress</text><!--MD5=[1d09adc9dbb26e2362a195c4985980e6]
entity configmap--><path d="M110.5126,470.222 C115.1603,460.0449 122.2134,460.5378 128.8495,468.1753 C133.6898,460.358 142.0265,459.0597 147.6524,467.2526 C154.1443,458.6306 164.1436,459.933 168.8443,469.3561 C172.3806,459.7639 180.556,461.3658 185.6284,467.7415 C192.5312,456.9221 202.0888,458.7926 207.9847,468.8212 C211.1401,458.6923 219.561,457.1379 225.8425,465.8598 C232.6077,456.0861 239.225,457.2906 244.982,466.8574 C251.8823,458.9347 259.3556,459.0872 265.3163,467.9928 C271.4853,460.4221 278.054,459.177 283.0028,469.2181 C289.4305,459.5961 298.901,459.1311 305.0162,469.5612 C309.749,461.2923 317.7322,460.8629 323.0596,468.9034 C330.0228,458.2537 338.8543,459.5094 343.9421,470.6969 C352.1479,475.9291 352.8492,483.9403 344.1677,489.3764 C354.0084,492.1985 354.0198,500.7443 346.7029,506.1584 C356.5579,512.4819 355.2152,522.0196 345.6875,527.4174 C352.6163,535.1302 350.6021,541.3275 341.2432,544.8995 C336.4947,554.1468 329.5968,553.0901 323.9719,545.8157 C317.8843,556.2102 311.1053,554.0878 304.917,545.9191 C301.3569,558.2811 291.3889,559.7261 283.5398,550.0863 C278.5204,558.6909 269.5598,560.1415 264.8143,549.8153 C261.2125,561.2339 252.2072,562.984 245.0962,553.0569 C238.3032,563.2189 231.3476,562.6989 224.6202,552.9892 C219.1111,560.9294 211.2137,559.4762 207.0288,551.5235 C199.8631,560.4245 189.9171,560.0948 185.5987,548.5405 C180.4399,556.668 174.2024,555.4179 169.1001,548.4786 C161.1795,558.6874 153.6433,558.2541 146.7649,547.3749 C140.7357,555.4718 133.6692,554.6072 128.9291,545.9986 C122.5867,556.1076 112.5773,554.064 107.5901,544.5267 C96.6568,541.0402 93.943,535.6856 101.4641,526.073 C90.7987,521.0013 89.2713,514.6999 97.7792,506.0921 C90.4137,499.6302 91.9319,492.7691 100.9146,489.3729 C93.9325,478.5529 98.438,471.4913 110.5126,470.222 " fill="#FFFFFF" filter="url(#f1qemp2yfg4364)" style="stroke:#00008B;stroke-width:1.6000000000000003;"/><text fill="#000000" font-family="sans-serif" font-size="22.4" font-style="italic" lengthAdjust="spacing" textLength="142.4" x="152.8" y="500.8563">«ConfigMap»</text><text fill="#000000" font-family="sans-serif" font-size="22.4" lengthAdjust="spacing" textLength="211.2" x="118.4" y="527.2375">simple-web-config</text><!--MD5=[9bd351b5619e41b8d153e7a73a02ab25]
entity secret--><path d="M105.9766,666.4993 C110.8313,655.5755 118.4132,657.1886 125.2043,664.452 C132.0745,653.7876 142.0074,657.8384 146.2688,667.1966 C151.3942,657.3423 158.0013,656.4637 166.0527,663.8363 C171.1693,655.6008 178.4561,653.5315 184.2218,663.1768 C191.6196,654.0358 198.0799,656.1951 204.1257,664.7017 C209.7892,652.6103 219.33,653.3992 227.3076,662.1245 C232.4101,652.8126 241.4302,653.1502 245.7552,662.8778 C252.4363,653.7165 260.0312,654.8497 265.4458,664.2233 C271.9849,652.9483 281.4576,652.2102 287.8795,664.3356 C294.1725,657.3163 302.9106,656.646 306.2396,667.3979 C310.2369,658.3634 319.3725,654.3885 326.2166,664.4142 C334.0434,655.9108 342.8761,657.623 347.1506,668.2928 C356.9406,669.7739 358.2409,678.2518 352.5576,684.801 C363.5754,687.3247 366.6016,695.4623 358.7517,704.0557 C364.8054,713.2804 364.5536,722.0977 351.4813,724.5311 C357.0195,731.3353 355.46,736.5031 347.6352,739.9807 C341.955,752.556 333.8135,752.3423 325.4926,742.6008 C318.9673,751.8568 312.5761,750.9031 306.8488,741.7908 C301.2898,753.3886 290.4691,753.6951 284.9662,741.7387 C279.1841,749.685 273.3739,750.0827 267.192,742.1872 C261.5166,752.0235 252.4238,752.2806 245.775,743.2948 C240.2464,751.2439 233.6815,753.6242 227.4394,744.041 C220.2454,755.4723 210.3098,754.8803 204.4974,742.6986 C200.3382,751.0933 191.6531,753.6158 185.6779,744.6694 C178.6307,755.48 170.7051,754.3972 164.0901,744.2249 C158.8972,752.1029 150.5727,752.6893 146.6535,742.9633 C140.2898,755.0141 129.7032,754.2977 124.1193,742.2345 C118.5029,751.1901 109.2792,749.9552 104.7643,741.0415 C95.9163,736.9086 93.8022,729.4986 100.9428,722.1341 C93.1255,717.8162 90.8101,711.1398 98.7675,704.838 C89.276,697.3004 89.8797,688.5509 101.3816,683.5969 C95.2636,676.5821 97.5596,669.6077 105.9766,666.4993 " fill="#FFFFFF" filter="url(#f1qemp2yfg4364)" style="stroke:#00008B;stroke-width:1.6000000000000003;"/><text fill="#000000" font-family="sans-serif" font-size="22.4" font-style="italic" lengthAdjust="spacing" textLength="89.6" x="179.2" y="697.6563">«Secret»</text><text fill="#000000" font-family="sans-serif" font-size="22.4" lengthAdjust="spacing" textLength="219.2" x="114.4" y="724.0375">simple-web-secrets</text><!--MD5=[ca62b0302fe1d253e589290bd9031d67]
entity ext_call--><ellipse cx="1035.2" cy="1258.4" fill="#FEFECE" filter="url(#f1qemp2yfg4364)" rx="12.8" ry="12.8" style="stroke:#000000;stroke-width:3.2000000000000006;"/><path d="M1035.2,1271.2 L1035.2,1314.4 M1014.4,1284 L1056,1284 M1035.2,1314.4 L1014.4,1338.4 M1035.2,1314.4 L1056,1338.4 " fill="none" filter="url(#f1qemp2yfg4364)" style="stroke:#000000;stroke-width:3.2000000000000006;"/><text fill="#000000" font-family="sans-serif" font-size="22.4" lengthAdjust="spacing" textLength="209.6" x="930.4" y="1371.2563">Calls to application</text><!--MD5=[e112ae0d2d70384657e89de5c1e68ffa]
reverse link container_A_1 to proxy_1--><path d="M1223.408,542.672 C1222.8,580.192 1221.824,638.64 1221.264,672.992 " fill="none" id="container_A_1-backto-proxy_1" style="stroke:#00008B;stroke-width:1.6000000000000003;"/><polygon fill="#00008B" points="1223.552,534.528,1216.9054,548.8159,1223.4145,542.5268,1229.7035,549.0359,1223.552,534.528" style="stroke:#00008B;stroke-width:1.6000000000000003;"/><!--MD5=[393e4ebd340060e126d663d5631ee120]
reverse link container_A_2 to proxy_2--><path d="M851.2,542.672 C851.2,580.192 851.2,638.64 851.2,672.992 " fill="none" id="container_A_2-backto-proxy_2" style="stroke:#00008B;stroke-width:1.6000000000000003;"/><polygon fill="#00008B" points="851.2,534.528,844.8,548.928,851.2,542.528,857.6,548.928,851.2,534.528" style="stroke:#00008B;stroke-width:1.6000000000000003;"/><!--MD5=[07e0f25445126094d9c48cd6625418f7]
reverse link container_B_2 to proxy_2--><path d="M659.68,539.872 C704.144,577.232 776.208,637.776 818.096,672.992 " fill="none" id="container_B_2-backto-proxy_2" style="stroke:#00008B;stroke-width:1.6000000000000003;"/><polygon fill="#00008B" points="653.328,534.528,660.2414,548.6887,659.455,539.6719,668.4717,538.8855,653.328,534.528" style="stroke:#00008B;stroke-width:1.6000000000000003;"/><!--MD5=[6bac4bb3b37b26b15efde042d538c982]
reverse link proxy_1 to service_a--><path d="M1188.928,737.248 C1159.504,767.936 1115.456,813.888 1082.032,848.736 " fill="none" id="proxy_1-backto-service_a" style="stroke:#00008B;stroke-width:1.6000000000000003;"/><polygon fill="#00008B" points="1194.608,731.328,1180.0295,737.3102,1189.0782,737.1091,1189.2793,746.1579,1194.608,731.328" style="stroke:#00008B;stroke-width:1.6000000000000003;"/><!--MD5=[dbfcf32404e43593d63d053375818af4]
reverse link proxy_2 to service_a--><path d="M882.8,737.248 C911.968,767.936 955.632,813.888 988.768,848.736 " fill="none" id="proxy_2-backto-service_a" style="stroke:#00008B;stroke-width:1.6000000000000003;"/><polygon fill="#00008B" points="877.168,731.328,882.4368,746.1793,882.6744,737.1314,891.7222,737.369,877.168,731.328" style="stroke:#00008B;stroke-width:1.6000000000000003;"/><!--MD5=[a6469b7f271a787c0db9f355e5841576]
reverse link service_a to ingress--><path d="M1035.2,958.096 C1035.2,985.904 1035.2,1018.96 1035.2,1045.568 " fill="none" id="service_a-backto-ingress" style="stroke:#00008B;stroke-width:1.6000000000000003;"/><polygon fill="#00008B" points="1035.2,949.648,1028.8,964.048,1035.2,957.648,1041.6,964.048,1035.2,949.648" style="stroke:#00008B;stroke-width:1.6000000000000003;"/><!--MD5=[d4607e0781279d3c897a8d0744ec188c]
link configmap to secret--><!--MD5=[e8954fde717787a0701c39faf7ad01a6]
link about_node to kube_worker_1--><path d="M907.936,139.344 C914.448,143.104 920.64,147.312 926.4,152 C992.776,206.088 1035.288,292.204 1061.346,365.718 C1067.8605,384.0965 1073.3466,401.6874 1077.9202,417.7933 C1080.2069,425.8462 1082.2655,433.5279 1084.1105,440.7512 C1084.3411,441.6542 1084.5684,442.5499 1084.7923,443.4383 " fill="none" id="about_node-to-kube_worker_1" style="stroke:#00008B;stroke-width:1.6000000000000003;stroke-dasharray:7.0,7.0;"/><polygon fill="#00008B" points="1084.7923,443.4383,1087.4781,427.9107,1082.8367,435.681,1075.0664,431.0397,1084.7923,443.4383" style="stroke:#00008B;stroke-width:1.6000000000000003;"/><!--MD5=[afe8827b81dd3c3881662d065fa4f985]
link about_node to kube_worker_2--><path d="M570.016,139.344 C559.504,143.184 551.008,147.392 545.6,152 C514.172,178.756 489.976,213.661 471.3558,251.0838 C466.7007,260.4394 462.3941,269.9525 458.4101,279.5349 " fill="none" id="about_node-to-kube_worker_2" style="stroke:#00008B;stroke-width:1.6000000000000003;stroke-dasharray:7.0,7.0;"/><polygon fill="#00008B" points="458.4101,279.5349,469.8479,268.6953,461.4813,272.1479,458.0287,263.7813,458.4101,279.5349" style="stroke:#00008B;stroke-width:1.6000000000000003;"/><!--MD5=[79feced4351fd6a69fb3c2dbf2977874]
reverse link ingress to ext_call--><path d="M1035.2,1154.896 C1035.2,1181.744 1035.2,1213.888 1035.2,1241.696 " fill="none" id="ingress-backto-ext_call" style="stroke:#00008B;stroke-width:1.6000000000000003;"/><polygon fill="#00008B" points="1035.2,1146.736,1028.8,1161.136,1035.2,1154.736,1041.6,1161.136,1035.2,1146.736" style="stroke:#00008B;stroke-width:1.6000000000000003;"/><!--MD5=[1f79c42ab17ddc6050dddd7562af2aa8]
@startuml
<style>
' TODO: Export to a generic style sheet
componentDiagram {
    LineColor darkblue
    TextColor blue

    agent {
        BackGroundColor palegreen
    }
    cloud {
'        BackGroundColor lightgray
        BackGroundColor white
    }
    database {
        BackGroundColor white
    }
    node {
        BackGroundColor white
    }
    actor {
        LineColor black
    }
}
document {
  BackGroundColor white
}
</style>

actor "Calls to application" as ext_call

node Cluster as cluster {
    node "Default" as ns <<Namespace>> #lightgrey {
        node "Node 1" as kube_worker_1 <<Virtual Machine>>  #white {
            agent "Kube-Proxy" as proxy_1

            cloud "my-web-server-1" as pod_A_1 <<Pod>> {
                agent "Nginx" as container_A_1
            }
            container_A_1 <- - proxy_1
        }

        node "Node 2" as kube_worker_2 <<Virtual Machine>> #white {
            agent "Kube-Proxy" as proxy_2

            cloud "my-web-server-2" as pod_A_2 <<Pod>> {
                agent "Nginx" as container_A_2
            }
            cloud "my-web-server-3" as pod_B_2 <<Pod>> {
                agent "Nginx" as container_B_2
            }

            container_A_2 <- - proxy_2
            container_B_2 <- - proxy_2
        }

        cloud "simple-web-service-clusterip" as service_a <<Service>> {
        }

        cloud "simple-web-ingress" as ingress <<Ingress>> {
        }

        cloud "simple-web-config" as configmap <<ConfigMap>> {
        }
        cloud "simple-web-secrets" as secret <<Secret>> {
        }

        cloud "simple-web-ingress" as ingress <<Ingress>> {
        }

        proxy_1 <- - service_a
        proxy_2 <- - service_a

        service_a <- - ingress

        ' Formatting
        configmap -[hidden]- secret
    }

    note as about_node
        The Nodes can be used by any other namespace
        at the same time.
    end note
    about_node ..> kube_worker_1
    about_node ..> kube_worker_2
}


ingress <- - ext_call
@enduml

@startuml
<style>
componentDiagram {
    LineColor darkblue
    TextColor blue

    agent {
        BackGroundColor palegreen
    }
    cloud {
        BackGroundColor white
    }
    database {
        BackGroundColor white
    }
    node {
        BackGroundColor white
    }
    actor {
        LineColor black
    }
}
document {
  BackGroundColor white
}
</style>

actor "Calls to application" as ext_call

node Cluster as cluster {
    node "Default" as ns <<Namespace>> #lightgrey {
        node "Node 1" as kube_worker_1 <<Virtual Machine>>  #white {
            agent "Kube-Proxy" as proxy_1

            cloud "my-web-server-1" as pod_A_1 <<Pod>> {
                agent "Nginx" as container_A_1
            }
            container_A_1 <- - proxy_1
        }

        node "Node 2" as kube_worker_2 <<Virtual Machine>> #white {
            agent "Kube-Proxy" as proxy_2

            cloud "my-web-server-2" as pod_A_2 <<Pod>> {
                agent "Nginx" as container_A_2
            }
            cloud "my-web-server-3" as pod_B_2 <<Pod>> {
                agent "Nginx" as container_B_2
            }

            container_A_2 <- - proxy_2
            container_B_2 <- - proxy_2
        }

        cloud "simple-web-service-clusterip" as service_a <<Service>> {
        }

        cloud "simple-web-ingress" as ingress <<Ingress>> {
        }

        cloud "simple-web-config" as configmap <<ConfigMap>> {
        }
        cloud "simple-web-secrets" as secret <<Secret>> {
        }

        cloud "simple-web-ingress" as ingress <<Ingress>> {
        }

        proxy_1 <- - service_a
        proxy_2 <- - service_a

        service_a <- - ingress

        configmap -[hidden]- secret
    }

    note as about_node
        The Nodes can be used by any other namespace
        at the same time.
    end note
    about_node ..> kube_worker_1
    about_node ..> kube_worker_2
}


ingress <- - ext_call
@enduml

PlantUML version 1.2021.4(Sun Apr 04 10:49:39 CEST 2021)
(GPL source distribution)
Java Runtime: OpenJDK Runtime Environment
JVM: OpenJDK 64-Bit Server VM
Default Encoding: UTF-8
Language: fr
Country: LU
--></g></svg>