<?xml version="1.0" encoding="UTF-8" standalone="no"?><svg xmlns="http://www.w3.org/2000/svg" xmlns:xlink="http://www.w3.org/1999/xlink" contentScriptType="application/ecmascript" contentStyleType="text/css" height="1263.6px" preserveAspectRatio="none" style="width:952px;height:1263px;" version="1.1" viewBox="0 0 952 1263" width="952.8px" zoomAndPan="magnify"><defs><filter height="300%" id="f45jxys8fg6km" width="300%" x="-1" y="-1"><feGaussianBlur result="blurOut" stdDeviation="2.4"/><feColorMatrix in="blurOut" result="blurOut2" type="matrix" values="0 0 0 0 0 0 0 0 0 0 0 0 0 0 0 0 0 0 .4 0"/><feOffset dx="4.8" dy="4.8" in="blurOut2" result="blurOut3"/><feBlend in="SourceGraphic" in2="blurOut3" mode="normal"/></filter></defs><g><!--MD5=[270a06cc05541a8e5bd0302549497d20]
cluster zk_cluster--><polygon fill="#FFFFFF" filter="url(#f45jxys8fg6km)" points="376.8,19.2,388.8,7.2,804,7.2,804,136.8,792,148.8,376.8,148.8,376.8,19.2" style="stroke:#00008B;stroke-width:2.4;"/><line style="stroke:#00008B;stroke-width:2.4;" x1="792" x2="804" y1="19.2" y2="7.2"/><line style="stroke:#00008B;stroke-width:2.4;" x1="376.8" x2="792" y1="19.2" y2="19.2"/><line style="stroke:#00008B;stroke-width:2.4;" x1="792" x2="792" y1="19.2" y2="148.8"/><text fill="#000000" font-family="sans-serif" font-size="16.8" font-weight="bold" lengthAdjust="spacing" textLength="158.4" x="506.4" y="39.0422">Zookeeper Cluster</text><!--MD5=[ae7709657f611b622ade1638c535e86e]
cluster cluster--><polygon fill="#FFFFFF" filter="url(#f45jxys8fg6km)" points="376.8,238.8,388.8,226.8,932.4,226.8,932.4,811.2,920.4,823.2,376.8,823.2,376.8,238.8" style="stroke:#00008B;stroke-width:2.4;"/><line style="stroke:#00008B;stroke-width:2.4;" x1="920.4" x2="932.4" y1="238.8" y2="226.8"/><line style="stroke:#00008B;stroke-width:2.4;" x1="376.8" x2="920.4" y1="238.8" y2="238.8"/><line style="stroke:#00008B;stroke-width:2.4;" x1="920.4" x2="920.4" y1="238.8" y2="823.2"/><text fill="#000000" font-family="sans-serif" font-size="16.8" font-weight="bold" lengthAdjust="spacing" textLength="117.6" x="591" y="258.6422">Kafka Cluster</text><!--MD5=[fe714b8845e0f6b1330fc91ed5ce3b49]
cluster broker_1--><polygon fill="#FFFFFF" filter="url(#f45jxys8fg6km)" points="440.4,306,452.4,294,894,294,894,412.8,882,424.8,440.4,424.8,440.4,306" style="stroke:#00008B;stroke-width:2.4;"/><line style="stroke:#00008B;stroke-width:2.4;" x1="882" x2="894" y1="306" y2="294"/><line style="stroke:#00008B;stroke-width:2.4;" x1="440.4" x2="882" y1="306" y2="306"/><line style="stroke:#00008B;stroke-width:2.4;" x1="882" x2="882" y1="306" y2="424.8"/><text fill="#000000" font-family="sans-serif" font-size="16.8" font-weight="bold" lengthAdjust="spacing" textLength="73.2" x="625.8" y="325.8422">Broker 1</text><!--MD5=[46979a5a4abc66270181494afdbb132a]
cluster broker_2--><polygon fill="#FFFFFF" filter="url(#f45jxys8fg6km)" points="424.8,476.4,436.8,464.4,878.4,464.4,878.4,583.2,866.4,595.2,424.8,595.2,424.8,476.4" style="stroke:#00008B;stroke-width:2.4;"/><line style="stroke:#00008B;stroke-width:2.4;" x1="866.4" x2="878.4" y1="476.4" y2="464.4"/><line style="stroke:#00008B;stroke-width:2.4;" x1="424.8" x2="866.4" y1="476.4" y2="476.4"/><line style="stroke:#00008B;stroke-width:2.4;" x1="866.4" x2="866.4" y1="476.4" y2="595.2"/><text fill="#000000" font-family="sans-serif" font-size="16.8" font-weight="bold" lengthAdjust="spacing" textLength="73.2" x="610.2" y="496.2422">Broker 2</text><!--MD5=[d22678cfd1aa23c0659c7bbaa0588d0d]
cluster broker_n--><polygon fill="#FFFFFF" filter="url(#f45jxys8fg6km)" points="440.4,666,452.4,654,894,654,894,772.8,882,784.8,440.4,784.8,440.4,666" style="stroke:#00008B;stroke-width:2.4;"/><line style="stroke:#00008B;stroke-width:2.4;" x1="882" x2="894" y1="666" y2="654"/><line style="stroke:#00008B;stroke-width:2.4;" x1="440.4" x2="882" y1="666" y2="666"/><line style="stroke:#00008B;stroke-width:2.4;" x1="882" x2="882" y1="666" y2="784.8"/><text fill="#000000" font-family="sans-serif" font-size="16.8" font-weight="bold" lengthAdjust="spacing" textLength="75.6" x="624.6" y="685.8422">Broker N</text><!--MD5=[ef09c63a68a5eb4229ddbba664501688]
cluster reg--><polygon fill="#FFFFFF" filter="url(#f45jxys8fg6km)" points="132,1113.6,144,1101.6,516,1101.6,516,1231.2,504,1243.2,132,1243.2,132,1113.6" style="stroke:#00008B;stroke-width:2.4;"/><line style="stroke:#00008B;stroke-width:2.4;" x1="504" x2="516" y1="1113.6" y2="1101.6"/><line style="stroke:#00008B;stroke-width:2.4;" x1="132" x2="504" y1="1113.6" y2="1113.6"/><line style="stroke:#00008B;stroke-width:2.4;" x1="504" x2="504" y1="1113.6" y2="1243.2"/><text fill="#000000" font-family="sans-serif" font-size="16.8" font-weight="bold" lengthAdjust="spacing" textLength="211.2" x="213.6" y="1133.4422">Schema Registry Cluster</text><!--MD5=[5e19cce15e5af42364f706e4836206f2]
cluster cg_a--><polygon fill="#FFFFFF" filter="url(#f45jxys8fg6km)" points="199.2,894,211.2,882,621.6,882,621.6,1011.6,609.6,1023.6,199.2,1023.6,199.2,894" style="stroke:#00008B;stroke-width:2.4;"/><line style="stroke:#00008B;stroke-width:2.4;" x1="609.6" x2="621.6" y1="894" y2="882"/><line style="stroke:#00008B;stroke-width:2.4;" x1="199.2" x2="609.6" y1="894" y2="894"/><line style="stroke:#00008B;stroke-width:2.4;" x1="609.6" x2="609.6" y1="894" y2="1023.6"/><text fill="#000000" font-family="sans-serif" font-size="16.8" font-weight="bold" lengthAdjust="spacing" textLength="145.2" x="333" y="913.8422">Consumer Group</text><!--MD5=[bfdb67aca21ad20bd2451144c58ea033]
entity zk_1--><polygon fill="#FFFFFF" filter="url(#f45jxys8fg6km)" points="624,76.8,636,64.8,775.2,64.8,775.2,108.5859,763.2,120.5859,624,120.5859,624,76.8" style="stroke:#00008B;stroke-width:1.2;"/><line style="stroke:#00008B;stroke-width:1.2;" x1="763.2" x2="775.2" y1="76.8" y2="64.8"/><line style="stroke:#00008B;stroke-width:1.2;" x1="624" x2="763.2" y1="76.8" y2="76.8"/><line style="stroke:#00008B;stroke-width:1.2;" x1="763.2" x2="763.2" y1="76.8" y2="120.5859"/><text fill="#000000" font-family="sans-serif" font-size="16.8" lengthAdjust="spacing" textLength="103.2" x="642" y="105.0422">Zookeeper 1</text><!--MD5=[de70b5b4d5c26ddfb0c6406c633e420b]
entity zk_n--><polygon fill="#FFFFFF" filter="url(#f45jxys8fg6km)" points="429,76.8,441,64.8,581.4,64.8,581.4,108.5859,569.4,120.5859,429,120.5859,429,76.8" style="stroke:#00008B;stroke-width:1.2;"/><line style="stroke:#00008B;stroke-width:1.2;" x1="569.4" x2="581.4" y1="76.8" y2="64.8"/><line style="stroke:#00008B;stroke-width:1.2;" x1="429" x2="569.4" y1="76.8" y2="76.8"/><line style="stroke:#00008B;stroke-width:1.2;" x1="569.4" x2="569.4" y1="76.8" y2="120.5859"/><text fill="#000000" font-family="sans-serif" font-size="16.8" lengthAdjust="spacing" textLength="104.4" x="447" y="105.0422">Zookeeper N</text><!--MD5=[926d9ce97a6562c140de7925d97070d7]
entity t1p0l--><rect fill="#FFD700" filter="url(#f45jxys8fg6km)" height="58.7719" style="stroke:#00008B;stroke-width:1.7999999999999998;" width="181.2" x="465" y="346.8"/><rect fill="#FFD700" height="58.7719" style="stroke:#00008B;stroke-width:1.7999999999999998;" width="181.2" x="460.2" y="342"/><text fill="#000000" font-family="sans-serif" font-size="16.8" font-style="italic" lengthAdjust="spacing" textLength="72" x="514.8" y="367.8422">«Leader»</text><text fill="#000000" font-family="sans-serif" font-size="16.8" lengthAdjust="spacing" textLength="162" x="469.8" y="387.6281">topic 1 - partition 0</text><!--MD5=[56be4ff3688595e647d37728e662e60a]
entity t1p2r--><rect fill="#D3D3D3" filter="url(#f45jxys8fg6km)" height="58.7719" style="stroke:#00008B;stroke-width:1.7999999999999998;" width="181.2" x="693" y="346.8"/><rect fill="#D3D3D3" height="58.7719" style="stroke:#00008B;stroke-width:1.7999999999999998;" width="181.2" x="688.2" y="342"/><text fill="#000000" font-family="sans-serif" font-size="16.8" font-style="italic" lengthAdjust="spacing" textLength="87.6" x="735" y="367.8422">«Follower»</text><text fill="#000000" font-family="sans-serif" font-size="16.8" lengthAdjust="spacing" textLength="162" x="697.8" y="387.6281">topic 1 - partition 2</text><!--MD5=[3e65364a1e41d8d981fc29e3ad34494f]
entity t1p0r--><rect fill="#D3D3D3" filter="url(#f45jxys8fg6km)" height="58.7719" style="stroke:#00008B;stroke-width:1.7999999999999998;" width="181.2" x="677.4" y="517.2"/><rect fill="#D3D3D3" height="58.7719" style="stroke:#00008B;stroke-width:1.7999999999999998;" width="181.2" x="672.6" y="512.4"/><text fill="#000000" font-family="sans-serif" font-size="16.8" font-style="italic" lengthAdjust="spacing" textLength="87.6" x="719.4" y="538.2422">«Follower»</text><text fill="#000000" font-family="sans-serif" font-size="16.8" lengthAdjust="spacing" textLength="162" x="682.2" y="558.0281">topic 1 - partition 0</text><!--MD5=[3521babdf79d7dd19acb66f0f3c717ae]
entity t1p1l--><rect fill="#FFD700" filter="url(#f45jxys8fg6km)" height="58.7719" style="stroke:#00008B;stroke-width:1.7999999999999998;" width="181.2" x="449.4" y="517.2"/><rect fill="#FFD700" height="58.7719" style="stroke:#00008B;stroke-width:1.7999999999999998;" width="181.2" x="444.6" y="512.4"/><text fill="#000000" font-family="sans-serif" font-size="16.8" font-style="italic" lengthAdjust="spacing" textLength="72" x="499.2" y="538.2422">«Leader»</text><text fill="#000000" font-family="sans-serif" font-size="16.8" lengthAdjust="spacing" textLength="162" x="454.2" y="558.0281">topic 1 - partition 1</text><!--MD5=[65b929cdeab73793bd3234f4020928e9]
entity t1p2l--><rect fill="#FFD700" filter="url(#f45jxys8fg6km)" height="58.7719" style="stroke:#00008B;stroke-width:1.7999999999999998;" width="181.2" x="693" y="706.8"/><rect fill="#FFD700" height="58.7719" style="stroke:#00008B;stroke-width:1.7999999999999998;" width="181.2" x="688.2" y="702"/><text fill="#000000" font-family="sans-serif" font-size="16.8" font-style="italic" lengthAdjust="spacing" textLength="72" x="742.8" y="727.8422">«Leader»</text><text fill="#000000" font-family="sans-serif" font-size="16.8" lengthAdjust="spacing" textLength="162" x="697.8" y="747.6281">topic 1 - partition 2</text><!--MD5=[b0b124784e3bfef113682431e606f71e]
entity t1p1r--><rect fill="#D3D3D3" filter="url(#f45jxys8fg6km)" height="58.7719" style="stroke:#00008B;stroke-width:1.7999999999999998;" width="181.2" x="465" y="706.8"/><rect fill="#D3D3D3" height="58.7719" style="stroke:#00008B;stroke-width:1.7999999999999998;" width="181.2" x="460.2" y="702"/><text fill="#000000" font-family="sans-serif" font-size="16.8" font-style="italic" lengthAdjust="spacing" textLength="87.6" x="507" y="727.8422">«Follower»</text><text fill="#000000" font-family="sans-serif" font-size="16.8" lengthAdjust="spacing" textLength="162" x="469.8" y="747.6281">topic 1 - partition 1</text><!--MD5=[934f1044ab5729c605dd5c0f05724af8]
entity reg_1--><polygon fill="#FFFFFF" filter="url(#f45jxys8fg6km)" points="357.6,1171.2,369.6,1159.2,487.2,1159.2,487.2,1202.9859,475.2,1214.9859,357.6,1214.9859,357.6,1171.2" style="stroke:#00008B;stroke-width:1.2;"/><line style="stroke:#00008B;stroke-width:1.2;" x1="475.2" x2="487.2" y1="1171.2" y2="1159.2"/><line style="stroke:#00008B;stroke-width:1.2;" x1="357.6" x2="475.2" y1="1171.2" y2="1171.2"/><line style="stroke:#00008B;stroke-width:1.2;" x1="475.2" x2="475.2" y1="1171.2" y2="1214.9859"/><text fill="#000000" font-family="sans-serif" font-size="16.8" lengthAdjust="spacing" textLength="81.6" x="375.6" y="1199.4422">Registry 1</text><!--MD5=[45d16f66a3814e759d1515046538fec9]
entity reg_n--><polygon fill="#FFFFFF" filter="url(#f45jxys8fg6km)" points="184.2,1171.2,196.2,1159.2,315,1159.2,315,1202.9859,303,1214.9859,184.2,1214.9859,184.2,1171.2" style="stroke:#00008B;stroke-width:1.2;"/><line style="stroke:#00008B;stroke-width:1.2;" x1="303" x2="315" y1="1171.2" y2="1159.2"/><line style="stroke:#00008B;stroke-width:1.2;" x1="184.2" x2="303" y1="1171.2" y2="1171.2"/><line style="stroke:#00008B;stroke-width:1.2;" x1="303" x2="303" y1="1171.2" y2="1214.9859"/><text fill="#000000" font-family="sans-serif" font-size="16.8" lengthAdjust="spacing" textLength="82.8" x="202.2" y="1199.4422">Registry N</text><!--MD5=[79aa18176f4e2f3c5340813fe59d9a33]
entity cons_a1--><polygon fill="#FFFFFF" filter="url(#f45jxys8fg6km)" points="444,951.6,456,939.6,592.8,939.6,592.8,983.3859,580.8,995.3859,444,995.3859,444,951.6" style="stroke:#00008B;stroke-width:1.2;"/><line style="stroke:#00008B;stroke-width:1.2;" x1="580.8" x2="592.8" y1="951.6" y2="939.6"/><line style="stroke:#00008B;stroke-width:1.2;" x1="444" x2="580.8" y1="951.6" y2="951.6"/><line style="stroke:#00008B;stroke-width:1.2;" x1="580.8" x2="580.8" y1="951.6" y2="995.3859"/><text fill="#000000" font-family="sans-serif" font-size="16.8" lengthAdjust="spacing" textLength="100.8" x="462" y="979.8422">Consumer 1</text><!--MD5=[d66d7b57aec857d5f5ee55bd7c4b628b]
entity cons_an--><polygon fill="#FFFFFF" filter="url(#f45jxys8fg6km)" points="251.4,951.6,263.4,939.6,401.4,939.6,401.4,983.3859,389.4,995.3859,251.4,995.3859,251.4,951.6" style="stroke:#00008B;stroke-width:1.2;"/><line style="stroke:#00008B;stroke-width:1.2;" x1="389.4" x2="401.4" y1="951.6" y2="939.6"/><line style="stroke:#00008B;stroke-width:1.2;" x1="251.4" x2="389.4" y1="951.6" y2="951.6"/><line style="stroke:#00008B;stroke-width:1.2;" x1="389.4" x2="389.4" y1="951.6" y2="995.3859"/><text fill="#000000" font-family="sans-serif" font-size="16.8" lengthAdjust="spacing" textLength="102" x="269.4" y="979.8422">Consumer N</text><!--MD5=[7aefd2bb532d9417587bf7aaaaff10b6]
entity prod_1--><polygon fill="#FFFFFF" filter="url(#f45jxys8fg6km)" points="19.2,76.8,31.2,64.8,141.6,64.8,141.6,108.5859,129.6,120.5859,19.2,120.5859,19.2,76.8" style="stroke:#00008B;stroke-width:1.2;"/><line style="stroke:#00008B;stroke-width:1.2;" x1="129.6" x2="141.6" y1="76.8" y2="64.8"/><line style="stroke:#00008B;stroke-width:1.2;" x1="19.2" x2="129.6" y1="76.8" y2="76.8"/><line style="stroke:#00008B;stroke-width:1.2;" x1="129.6" x2="129.6" y1="76.8" y2="120.5859"/><text fill="#000000" font-family="sans-serif" font-size="16.8" lengthAdjust="spacing" textLength="74.4" x="37.2" y="105.0422">Producer</text><!--MD5=[90dcf7e4186a9db71054597319500d0e]
link zk_cluster to cluster--><path d="M386.4,149.7485 C386.4,153.2144 386.4,156.7886 386.4,160.4558 C386.4,167.7901 386.4,175.4959 386.4,183.4495 C386.4,191.403 386.4,199.6042 386.4,207.9291 C386.4,212.0916 386.4,216.2849 386.4,220.4938 C386.4,221.546 386.4,222.5991 386.4,223.653 C386.4,224.18 386.4,224.7071 386.4,225.2344 C386.4,225.498 386.4,225.7617 386.4,226.0254 C386.4,226.1572 386.4,226.2891 386.4,226.421 C386.4,226.4869 386.4,226.5528 386.4,226.6188 " fill="none" id="zk_cluster-to-cluster" style="stroke:#000000;stroke-width:1.2;"/><polygon fill="#000000" points="386.4,226.6188,391.2,215.8188,386.4,220.6188,381.6,215.8188,386.4,226.6188" style="stroke:#000000;stroke-width:1.2;"/><text fill="#000000" font-family="sans-serif" font-size="15.6" lengthAdjust="spacing" textLength="66" x="387.6" y="193.882">Manages</text><!--MD5=[583bba75a49d332d6d0e4dfb298ff2ca]
link cluster to reg--><path d="M376.7532,376.6433 C376.5551,376.6797 376.3544,376.7167 376.1509,376.7544 C375.3369,376.9051 374.4793,377.0662 373.5798,377.2376 C366.384,378.6096 356.5099,380.6528 344.8695,383.4789 C321.5888,389.1311 291.243,397.9148 261.129,410.7225 C200.901,436.338 141.6,478.05 141.6,543 C141.6,543 141.6,543 141.6,968.4 C141.6,992.157 141.6,1017.375 141.6,1041.8963 C141.6,1054.1569 141.6,1066.2433 141.6,1077.8858 C141.6,1083.7071 141.6,1089.4174 141.6,1094.983 C141.6,1096.3744 141.6,1097.7568 141.6,1099.1295 C141.6,1099.8159 141.6,1100.4999 141.6,1101.1815 " fill="none" id="cluster-to-reg" style="stroke:#000000;stroke-width:1.2;stroke-dasharray:7.0,7.0;"/><polygon fill="#000000" points="141.6,1101.1815,146.4,1090.3815,141.6,1095.1815,136.8,1090.3815,141.6,1101.1815" style="stroke:#000000;stroke-width:1.2;"/><text fill="#000000" font-family="sans-serif" font-size="15.6" lengthAdjust="spacing" textLength="103.2" x="142.8" y="739.882">Fetch Schema</text><!--MD5=[51827527aa178aed55797c5d48462735]
link t1p0l to t1p0r--><path d="M592.152,405.816 C628.836,434.82 683.688,478.212 721.848,508.392 " fill="none" id="t1p0l-to-t1p0r" style="stroke:#000000;stroke-width:1.2;stroke-dasharray:7.0,7.0;"/><polygon fill="#000000" points="726.888,512.376,721.4065,501.9054,722.1862,508.6487,715.4428,509.4284,726.888,512.376" style="stroke:#000000;stroke-width:1.2;"/><!--MD5=[b189112256ab8f48f06b24cd6cff88cc]
link t1p1l to t1p1r--><path d="M540.18,576.312 C542.904,609.06 547.212,660.768 550.116,695.64 " fill="none" id="t1p1l-to-t1p1r" style="stroke:#000000;stroke-width:1.2;stroke-dasharray:7.0,7.0;"/><polygon fill="#000000" points="550.644,701.952,554.5332,690.7916,550.1471,695.9726,544.9661,691.5866,550.644,701.952" style="stroke:#000000;stroke-width:1.2;"/><!--MD5=[46eb50060973a338f7abbfc19658ab66]
link t1p2l to t1p2r--><path d="M813.852,701.964 C836.832,678.024 865.668,642.576 878.4,604.8 C899.7,541.62 906.9,515.064 878.4,454.8 C869.94,436.908 855.288,421.692 839.892,409.488 " fill="none" id="t1p2l-to-t1p2r" style="stroke:#000000;stroke-width:1.2;stroke-dasharray:7.0,7.0;"/><polygon fill="#000000" points="835.092,405.792,840.7456,416.1707,839.8547,409.4412,846.5843,408.5503,835.092,405.792" style="stroke:#000000;stroke-width:1.2;"/><!--MD5=[0ca26cd6f56f0a87b6dafa7809554a17]
link prod_1 to cluster--><path d="M109.74,120.348 C147.438,154.722 215.046,216.366 273.99,270.1095 C303.462,296.9813 330.768,321.8779 351.0863,340.4031 C361.2454,349.6657 369.6576,357.3354 375.7201,362.8627 C375.9095,363.0355 376.0967,363.2061 376.2816,363.3746 " fill="none" id="prod_1-to-cluster" style="stroke:#000000;stroke-width:1.2;"/><polygon fill="#000000" points="376.2816,363.3746,371.5346,352.5512,371.8477,359.3322,365.0667,359.6453,376.2816,363.3746" style="stroke:#000000;stroke-width:1.2;"/><text fill="#000000" font-family="sans-serif" font-size="15.6" lengthAdjust="spacing" textLength="114" x="188.4" y="193.882">Send Messages</text><!--MD5=[94a1e0bf6b8ae507169a861d91c777c2]
reverse link t1p0l to cons_an--><path d="M497.412,408.996 C463.356,429.852 426.084,452.928 424.8,454.8 C316.488,612.3 319.98,858.48 324.468,939.312 " fill="none" id="t1p0l-backto-cons_an" style="stroke:#000000;stroke-width:1.2;"/><polygon fill="#000000" points="502.836,405.672,491.1172,407.2047,497.7155,408.7993,496.1209,415.3976,502.836,405.672" style="stroke:#000000;stroke-width:1.2;"/><!--MD5=[3a80c3c539899ef4ec9c749e5ba93a47]
reverse link t1p1l to cons_a1--><path d="M489.864,580.212 C470.652,597.168 450.648,619.32 440.4,644.4 C407.1,725.856 415.956,757.86 440.4,842.4 C451.044,879.204 476.268,915.6 495.168,939.252 " fill="none" id="t1p1l-backto-cons_a1" style="stroke:#000000;stroke-width:1.2;"/><polygon fill="#000000" points="494.724,576.024,483.4139,579.4537,490.1842,579.9471,489.6908,586.7173,494.724,576.024" style="stroke:#000000;stroke-width:1.2;"/><!--MD5=[78f2cf091f2501815fdb4c4c8a46e227]
reverse link t1p2l to cons_a1--><path d="M745.416,769.812 C723.216,791.124 693.924,818.748 667.2,842.4 C628.212,876.9 581.892,914.928 551.4,939.576 " fill="none" id="t1p2l-backto-cons_a1" style="stroke:#000000;stroke-width:1.2;"/><polygon fill="#000000" points="749.748,765.636,738.6335,769.6545,745.4204,769.7919,745.283,776.5787,749.748,765.636" style="stroke:#000000;stroke-width:1.2;"/><!--MD5=[94d61bdccedf51f31fb26a8be9b5b115]
link prod_1 to reg--><path d="M68.868,120.348 C48.804,169.392 9.6,277.404 9.6,372.6 C9.6,372.6 9.6,372.6 9.6,968.4 C9.6,1023.996 41.577,1077.48 74.0535,1117.464 C90.2918,1137.456 106.6549,1154.073 119.2082,1165.8915 C122.3465,1168.8461 125.2467,1171.5008 127.8474,1173.8334 C129.1477,1174.9997 130.3731,1176.0854 131.5159,1177.0879 C131.6588,1177.2132 131.8003,1177.3372 131.9406,1177.4599 " fill="none" id="prod_1-to-reg" style="stroke:#000000;stroke-width:1.2;stroke-dasharray:7.0,7.0;"/><polygon fill="#000000" points="131.9406,1177.4599,126.9722,1166.7363,127.4246,1173.5094,120.6515,1173.9618,131.9406,1177.4599" style="stroke:#000000;stroke-width:1.2;"/><text fill="#000000" font-family="sans-serif" font-size="15.6" lengthAdjust="spacing" textLength="102" x="10.8" y="630.682">Input Schema</text><!--MD5=[6513f81990502e4698e2aab42301abc2]
link cg_a to reg--><path d="M199.0608,990.4048 C198.9431,990.6783 198.8246,990.9538 198.7054,991.2314 C198.4671,991.7864 198.2257,992.3494 197.9816,992.9201 C196.0285,997.4856 193.8956,1002.5437 191.6565,1007.967 C182.7,1029.66 172.044,1057.194 164.4,1082.4 C162.75,1087.8435 161.1653,1093.482 159.6541,1099.1884 C159.4653,1099.9018 159.2775,1100.6161 159.0909,1101.3313 " fill="none" id="cg_a-to-reg" style="stroke:#000000;stroke-width:1.2;stroke-dasharray:7.0,7.0;"/><polygon fill="#000000" points="159.0909,1101.3313,166.4617,1092.0927,160.6055,1095.5256,157.1726,1089.6694,159.0909,1101.3313" style="stroke:#000000;stroke-width:1.2;"/><text fill="#000000" font-family="sans-serif" font-size="15.6" lengthAdjust="spacing" textLength="103.2" x="174" y="1068.682">Fetch Schema</text><!--MD5=[c983a6e2db63e0385b9d3046f9f57c49]
@startuml
<style>
' TODO: Export to a generic style sheet
componentDiagram {
    LineColor darkblue
    TextColor blue
    BackGroundColor white
    .Leader {
        BackGroundColor gold
    }
    .Follower {
        BackGroundColor lightgray
    }
    arrow {
        LineColor black
    }
}
document {
  BackGroundColor white
}
</style>

node "Producer" as prod_1

node "Zookeeper Cluster" as zk_cluster {

    node "Zookeeper 1" as zk_1
    node "Zookeeper N" as zk_n
}

node "Kafka Cluster" as cluster {
    node "Broker 1" as broker_1 {
        collections "topic 1 - partition 0" <<Leader>> as t1p0l
        collections "topic 1 - partition 2" <<Follower>> as t1p2r
    }
    node "Broker 2" as broker_2 {
        collections "topic 1 - partition 0" <<Follower>> as t1p0r
        collections "topic 1 - partition 1" <<Leader>> as t1p1l
    }
    node "Broker N" as broker_n {
       collections "topic 1 - partition 2" <<Leader>> as t1p2l
        collections "topic 1 - partition 1" <<Follower>> as t1p1r
  }
}

node "Schema Registry Cluster" as reg {
    node "Registry 1" as reg_1
    node "Registry N" as reg_n
}

node "Consumer Group" as cg_a {
    node "Consumer 1" as cons_a1
    node "Consumer N" as cons_an
}

zk_cluster - -> cluster: Manages
cluster    .> reg: Fetch Schema

t1p0l ..> t1p0r
t1p1l ..> t1p1r
t1p2l ..> t1p2r

' Producer -> Kafka
prod_1 - -> cluster: Send Messages

' Kaf-ka -> Consumer
t1p0l <- - cons_an
t1p1l <- - cons_a1
t1p2l <- - cons_a1

' Registry Handling
prod_1 .> reg: Input Schema
cg_a ..> reg: Fetch Schema


@enduml

@startuml
<style>
componentDiagram {
    LineColor darkblue
    TextColor blue
    BackGroundColor white
    .Leader {
        BackGroundColor gold
    }
    .Follower {
        BackGroundColor lightgray
    }
    arrow {
        LineColor black
    }
}
document {
  BackGroundColor white
}
</style>

node "Producer" as prod_1

node "Zookeeper Cluster" as zk_cluster {

    node "Zookeeper 1" as zk_1
    node "Zookeeper N" as zk_n
}

node "Kafka Cluster" as cluster {
    node "Broker 1" as broker_1 {
        collections "topic 1 - partition 0" <<Leader>> as t1p0l
        collections "topic 1 - partition 2" <<Follower>> as t1p2r
    }
    node "Broker 2" as broker_2 {
        collections "topic 1 - partition 0" <<Follower>> as t1p0r
        collections "topic 1 - partition 1" <<Leader>> as t1p1l
    }
    node "Broker N" as broker_n {
       collections "topic 1 - partition 2" <<Leader>> as t1p2l
        collections "topic 1 - partition 1" <<Follower>> as t1p1r
  }
}

node "Schema Registry Cluster" as reg {
    node "Registry 1" as reg_1
    node "Registry N" as reg_n
}

node "Consumer Group" as cg_a {
    node "Consumer 1" as cons_a1
    node "Consumer N" as cons_an
}

zk_cluster - -> cluster: Manages
cluster    .> reg: Fetch Schema

t1p0l ..> t1p0r
t1p1l ..> t1p1r
t1p2l ..> t1p2r

prod_1 - -> cluster: Send Messages

t1p0l <- - cons_an
t1p1l <- - cons_a1
t1p2l <- - cons_a1

prod_1 .> reg: Input Schema
cg_a ..> reg: Fetch Schema


@enduml

PlantUML version 1.2021.4(Sun Apr 04 10:49:39 CEST 2021)
(GPL source distribution)
Java Runtime: OpenJDK Runtime Environment
JVM: OpenJDK 64-Bit Server VM
Default Encoding: UTF-8
Language: fr
Country: LU
--></g></svg>