<?xml version="1.0" encoding="UTF-8" standalone="no"?><svg xmlns="http://www.w3.org/2000/svg" xmlns:xlink="http://www.w3.org/1999/xlink" contentScriptType="application/ecmascript" contentStyleType="text/css" height="2774px" preserveAspectRatio="none" style="width:2396px;height:2774px;" version="1.1" viewBox="0 0 2396 2774" width="2396px" zoomAndPan="magnify"><defs><filter height="300%" id="fhmrtr28unldw" width="300%" x="-1" y="-1"><feGaussianBlur result="blurOut" stdDeviation="4.0"/><feColorMatrix in="blurOut" result="blurOut2" type="matrix" values="0 0 0 0 0 0 0 0 0 0 0 0 0 0 0 0 0 0 .4 0"/><feOffset dx="8.0" dy="8.0" in="blurOut2" result="blurOut3"/><feBlend in="SourceGraphic" in2="blurOut3" mode="normal"/></filter></defs><g><rect fill="#FFFFFF" height="52.9766" style="stroke:none;stroke-width:2.0;" width="480" x="944.7577" y="10"/><text fill="#000000" font-family="sans-serif" font-size="28" font-weight="bold" lengthAdjust="spacing" textLength="460" x="954.7577" y="47.0703">Kubernetes Cluster Architecture</text><!--MD5=[ae7709657f611b622ade1638c535e86e]
cluster cluster--><path d="M437.7031,181.6694 C473.4508,128.7724 527.4711,121.3971 562.6937,182.2464 C612.4047,104.0874 682.1326,132.7385 716.2203,198.8698 C756.8896,122.0524 826.9966,120.1123 867.7676,198.7706 C915.4044,125.4497 975.6987,124.7144 1029.3791,191.815 C1071.5584,113.713 1134.4288,109.2763 1190.409,176.5253 C1241.2582,93.5459 1292.9842,103.6347 1342.6309,177.691 C1385.6346,119.1219 1448.9785,109.6768 1489.5643,180.4381 C1529.6985,113.1811 1590.7417,123.2564 1629.2059,182.2847 C1684.4072,93.0096 1735.2183,86.9766 1798.1332,174.9326 C1841.1516,117.5243 1907.3433,132.9438 1934.8786,192.9628 C1964.994,108.6793 2037.4891,115.6339 2087.4574,171.3218 C2136.4527,96.6086 2216.4711,110.2672 2253,185.1199 C2257.5807,187.6265 2258.5418,192.6649 2253.2616,195.4219 C2345.8307,234.1077 2355.3783,306.8553 2270.3498,363.5877 C2354.9661,400.4534 2349.5174,465.9003 2285.7613,517.612 C2366.0494,590.1185 2348.6105,648.1106 2267.172,704.5334 C2331.4051,746.0905 2335.7236,822.8828 2266.175,863.6015 C2336.3332,912.5799 2340.5885,960.818 2279.2781,1020.7577 C2350.7338,1059.0657 2346.04,1126.9928 2285.0175,1170.3825 C2375.5082,1224.6606 2379.0906,1284.2291 2293.8784,1347.3068 C2383.5154,1399.9659 2366.5733,1477.6979 2284.8302,1521.4526 C2366.3269,1562.0065 2374.2705,1639.143 2288.7837,1683.7642 C2358.0281,1734.5723 2349.729,1802.4811 2278.7854,1844.573 C2341.0108,1896.0976 2344.6796,1957.5171 2261.0927,1991.4809 C2335.6714,2034.7135 2342.5008,2096.9862 2276.9868,2153.9259 C2367.1689,2203.9393 2343.528,2266.8404 2278.0921,2317.9027 C2353.0906,2396.3715 2336.0152,2452.2487 2239,2492.1199 C2250.7259,2483.0673 2257.8973,2485.9986 2262.1766,2499.7036 C2220.5934,2573.1438 2166.5571,2590.2835 2104.7939,2522.1347 C2048.1192,2608.2451 1989.0441,2596.8883 1937.6599,2516.814 C1903.8274,2581.0985 1842.1795,2579.5517 1804.6308,2520.8332 C1749.5671,2588.2895 1693.5081,2588.1104 1643.8367,2514.679 C1594.9626,2583.3984 1540.4986,2563.8543 1503.1145,2502.2702 C1457.391,2571.7515 1397.1694,2580.9529 1352.2463,2501.4596 C1304.3862,2590.9441 1241.6733,2602.0147 1179.5157,2515.4909 C1125.0831,2578.4259 1063.6754,2577.5935 1026.129,2497.3951 C992.3148,2561.2025 927.6684,2575.5749 885.0736,2506.732 C829.1422,2592.8824 780.6215,2570.752 725.7271,2505.6395 C668.3916,2585.8961 620.4266,2578.2046 566.3423,2502.3207 C510.0167,2574.4813 427.4435,2575.045 395,2478.1199 C414.2008,2469.3699 421.2643,2479.425 422.9518,2496.8337 C322.1625,2461.0054 309.3555,2383.9596 392.5277,2317.0076 C321.9366,2270.3761 321.1619,2200.6235 399.0142,2160.1297 C332.5458,2110.1389 341.7036,2051.979 407.7543,2009.687 C317.3307,1969.8802 317.4382,1895.0165 401.2965,1848.2385 C329.4335,1785.5604 317.3419,1732.0446 406.6469,1674.3248 C315.9388,1648.4624 314.8807,1575.8903 379.1222,1522.0245 C283.2528,1460.907 281.8976,1396.8764 376.1911,1332.8132 C308.7526,1289.1701 306.7518,1232.9566 383.144,1196.6584 C316.0246,1144.6005 303.5766,1073.2407 394.9104,1032.5432 C310.9656,969.8761 315.0476,906.6296 399.5494,848.2016 C325.8154,808.0255 329.1758,728.912 397.6582,687.0667 C333.1587,636.3919 329.0256,563.3216 412.8254,526.6702 C318.9649,472.6066 328.0529,402.2608 416.3894,351.9129 C339.9033,291.813 335.3457,237.3564 409,171.1199 C422.3316,160.6061 434.9527,163.3936 437.7031,181.6694 " fill="#FFFFFF" filter="url(#fhmrtr28unldw)" style="stroke:#0000FF;stroke-width:4.0;"/><text fill="#000000" font-family="sans-serif" font-size="28" font-style="italic" lengthAdjust="spacing" textLength="118" x="1265" y="208.1902">«Virtual»</text><text fill="#000000" font-family="sans-serif" font-size="28" font-weight="bold" lengthAdjust="spacing" textLength="104" x="1272" y="241.1667">Cluster</text><!--MD5=[10ea673caf457862023e152271927b45]
cluster controller--><polygon fill="#FFFFFF" filter="url(#fhmrtr28unldw)" points="427,293.1199,447,273.1199,947,273.1199,947,1110.1199,927,1130.1199,427,1130.1199,427,293.1199" style="stroke:#0000FF;stroke-width:4.0;"/><line style="stroke:#0000FF;stroke-width:4.0;" x1="927" x2="947" y1="293.1199" y2="273.1199"/><line style="stroke:#0000FF;stroke-width:4.0;" x1="427" x2="927" y1="293.1199" y2="293.1199"/><line style="stroke:#0000FF;stroke-width:4.0;" x1="927" x2="927" y1="293.1199" y2="1130.1199"/><text fill="#000000" font-family="sans-serif" font-size="28" font-style="italic" lengthAdjust="spacing" textLength="152" x="603" y="326.1902">«Concrete»</text><text fill="#000000" font-family="sans-serif" font-size="28" font-weight="bold" lengthAdjust="spacing" textLength="354" x="502" y="359.1667">Kubernetes Controller(s)</text><!--MD5=[9ef9e723a7c2640b25ae5770e937ed69]
cluster kube_worker_1--><polygon fill="#FFFFFF" filter="url(#fhmrtr28unldw)" points="427,1198.1199,447,1178.1199,1025,1178.1199,1025,1996.1199,1005,2016.1199,427,2016.1199,427,1198.1199" style="stroke:#0000FF;stroke-width:4.0;"/><line style="stroke:#0000FF;stroke-width:4.0;" x1="1005" x2="1025" y1="1198.1199" y2="1178.1199"/><line style="stroke:#0000FF;stroke-width:4.0;" x1="427" x2="1005" y1="1198.1199" y2="1198.1199"/><line style="stroke:#0000FF;stroke-width:4.0;" x1="1005" x2="1005" y1="1198.1199" y2="2016.1199"/><text fill="#000000" font-family="sans-serif" font-size="28" font-style="italic" lengthAdjust="spacing" textLength="152" x="642" y="1231.1902">«Concrete»</text><text fill="#000000" font-family="sans-serif" font-size="28" font-weight="bold" lengthAdjust="spacing" textLength="102" x="667" y="1264.1667">Node 1</text><!--MD5=[dbd4e99c76f47f0e65c2c8c78908c11a]
cluster pod_A_1--><path d="M521.3764,1621.9883 C526.5386,1603.5879 542.9168,1603.9541 553.6181,1616.1517 C562.6775,1601.753 573.5531,1601.6483 583.4367,1615.2747 C589.6386,1599.1574 602.8047,1598.1503 614.0145,1609.7499 C622.122,1595.3641 631.7861,1596.4099 640.9177,1608.7178 C648.4539,1595.7643 658.7498,1595.7437 668.3144,1606.3601 C676.8873,1589.0281 687.4808,1591.4062 698.9793,1603.2892 C705.7618,1589.8649 720.9939,1588.2519 729.7465,1600.9706 C738.2921,1589.2151 751.5359,1591.7999 756.7998,1604.5879 C766.6899,1589.9384 778.3277,1589.9347 786.4877,1606.2469 C796.3728,1593.6758 812.3768,1594.8936 818.4189,1610.5881 C825.9016,1598.3116 837.0877,1598.8955 844.9933,1610.1096 C859.0783,1596.5581 870.0278,1600.7083 877.467,1617.2752 C885.5007,1605.1437 894.8023,1605.1609 901.7447,1618.3227 C920.1564,1600.7065 940.5192,1606.0616 945,1632.1199 C947.4717,1632.6447 947.9242,1634.1895 946.5779,1636.1932 C963.2685,1642.1484 967.2949,1651.2253 956.948,1666.4478 C971.1129,1670.8668 974.0316,1679.8413 965.0079,1691.6702 C982.2207,1697.5078 985.1862,1710.176 970.3864,1721.7397 C984.4932,1734.1439 979.7985,1749.2836 963.4061,1755.3545 C973.9001,1766.2494 974.3446,1778.6417 957.8803,1784.4096 C966.7069,1810.0636 960.5704,1824.4571 931,1824.1199 C932.8228,1824.9921 933.1443,1826.7242 931.3112,1827.8976 C923.5253,1842.293 913.9779,1841.1875 904.92,1829.1685 C899.2641,1846.1965 886.5793,1845.6217 876.0013,1834.1658 C868.7594,1851.9431 853.3791,1852.3027 843.6189,1836.6017 C836.4887,1849.4312 825.6685,1854.259 815.1593,1840.175 C808.5684,1853.9346 798.2026,1855.7117 788.478,1843.3795 C781.8463,1859.6816 769.141,1859.6159 759.4391,1846.4 C752.3471,1861.5824 737.6181,1863.4089 727.7008,1849.4803 C717.8252,1859.2935 705.9011,1856.7648 702.0993,1842.9102 C691.8906,1857.0474 675.0945,1856.6233 668.3766,1839.1823 C660.6138,1852.0281 646.6942,1850.6603 639.7981,1838.2034 C631.2485,1850.498 620.8447,1848.388 614.7033,1835.777 C604.2254,1852.2498 592.4407,1848.1215 582.8168,1834.8611 C571.8386,1847.355 557.4109,1844.7684 554.2395,1827.3922 C532.3551,1844.9043 511.6682,1839.6937 507,1810.1199 C508.7252,1810.3295 509.5207,1811.4951 508.5833,1813.1131 C493.1064,1806.7804 490.9221,1792.6114 502.2501,1780.9934 C487.2836,1774.8056 486.5909,1764.0055 497.5384,1753.3939 C485.729,1745.7421 482.7011,1735.5169 496.2764,1726.6665 C481.3518,1715.9203 481.2604,1702.1589 497.0073,1692.0605 C487.3656,1683.0814 488.3557,1671.6412 502.1162,1667.5374 C485.7158,1642.2906 488.5688,1624.7068 521,1618.1199 C522.9651,1618.9632 523.3614,1620.7606 521.3764,1621.9883 " fill="#FFFFFF" filter="url(#fhmrtr28unldw)" style="stroke:#0000FF;stroke-width:4.0;"/><text fill="#000000" font-family="sans-serif" font-size="28" font-style="italic" lengthAdjust="spacing" textLength="118" x="667" y="1655.1902">«Virtual»</text><text fill="#000000" font-family="sans-serif" font-size="28" font-weight="bold" lengthAdjust="spacing" textLength="84" x="684" y="1688.1667">Pod A</text><!--MD5=[7fe29c68313d7f2d04b0c0a11a3c1ed5]
cluster kube_worker_2--><polygon fill="#FFFFFF" filter="url(#fhmrtr28unldw)" points="1073,1198.1199,1093,1178.1199,2221,1178.1199,2221,1996.1199,2201,2016.1199,1073,2016.1199,1073,1198.1199" style="stroke:#0000FF;stroke-width:4.0;"/><line style="stroke:#0000FF;stroke-width:4.0;" x1="2201" x2="2221" y1="1198.1199" y2="1178.1199"/><line style="stroke:#0000FF;stroke-width:4.0;" x1="1073" x2="2201" y1="1198.1199" y2="1198.1199"/><line style="stroke:#0000FF;stroke-width:4.0;" x1="2201" x2="2201" y1="1198.1199" y2="2016.1199"/><text fill="#000000" font-family="sans-serif" font-size="28" font-style="italic" lengthAdjust="spacing" textLength="152" x="1563" y="1231.1902">«Concrete»</text><text fill="#000000" font-family="sans-serif" font-size="28" font-weight="bold" lengthAdjust="spacing" textLength="106" x="1586" y="1264.1667">Node N</text><!--MD5=[44a4fcdf88dfb8705815145e8cbea475]
cluster pod_A_2--><path d="M1167.3764,1621.9883 C1172.5386,1603.5879 1188.9168,1603.9541 1199.6181,1616.1517 C1208.6775,1601.753 1219.5531,1601.6483 1229.4367,1615.2747 C1235.6386,1599.1574 1248.8047,1598.1503 1260.0145,1609.7499 C1268.122,1595.3641 1277.7861,1596.4099 1286.9177,1608.7178 C1294.4539,1595.7643 1304.7498,1595.7437 1314.3144,1606.3601 C1322.8873,1589.0281 1333.4808,1591.4062 1344.9793,1603.2892 C1351.7618,1589.8649 1366.9939,1588.2519 1375.7465,1600.9706 C1384.2921,1589.2151 1397.5359,1591.7999 1402.7998,1604.5879 C1412.6899,1589.9384 1424.3277,1589.9347 1432.4877,1606.2469 C1442.3728,1593.6758 1458.3768,1594.8936 1464.4189,1610.5881 C1471.9016,1598.3116 1483.0877,1598.8955 1490.9933,1610.1096 C1505.0783,1596.5581 1516.0278,1600.7083 1523.467,1617.2752 C1531.5007,1605.1437 1540.8023,1605.1609 1547.7447,1618.3227 C1566.1564,1600.7065 1586.5192,1606.0616 1591,1632.1199 C1593.4717,1632.6447 1593.9242,1634.1895 1592.5779,1636.1932 C1609.2685,1642.1484 1613.2949,1651.2253 1602.948,1666.4478 C1617.1129,1670.8668 1620.0316,1679.8413 1611.0079,1691.6702 C1628.2207,1697.5078 1631.1862,1710.176 1616.3864,1721.7397 C1630.4932,1734.1439 1625.7985,1749.2836 1609.4061,1755.3545 C1619.9001,1766.2494 1620.3446,1778.6417 1603.8803,1784.4096 C1612.7069,1810.0636 1606.5704,1824.4571 1577,1824.1199 C1578.8228,1824.9921 1579.1443,1826.7242 1577.3112,1827.8976 C1569.5253,1842.293 1559.9779,1841.1875 1550.92,1829.1685 C1545.2641,1846.1965 1532.5793,1845.6217 1522.0013,1834.1658 C1514.7594,1851.9431 1499.3791,1852.3027 1489.6189,1836.6017 C1482.4887,1849.4312 1471.6685,1854.259 1461.1593,1840.175 C1454.5684,1853.9346 1444.2026,1855.7117 1434.478,1843.3795 C1427.8463,1859.6816 1415.141,1859.6159 1405.4391,1846.4 C1398.3471,1861.5824 1383.6181,1863.4089 1373.7008,1849.4803 C1363.8252,1859.2935 1351.9011,1856.7648 1348.0993,1842.9102 C1337.8906,1857.0474 1321.0945,1856.6233 1314.3766,1839.1823 C1306.6138,1852.0281 1292.6942,1850.6603 1285.7981,1838.2034 C1277.2485,1850.498 1266.8447,1848.388 1260.7033,1835.777 C1250.2254,1852.2498 1238.4407,1848.1215 1228.8168,1834.8611 C1217.8386,1847.355 1203.4109,1844.7684 1200.2395,1827.3922 C1178.3551,1844.9043 1157.6682,1839.6937 1153,1810.1199 C1154.7252,1810.3295 1155.5207,1811.4951 1154.5833,1813.1131 C1139.1064,1806.7804 1136.9221,1792.6114 1148.2501,1780.9934 C1133.2836,1774.8056 1132.5909,1764.0055 1143.5384,1753.3939 C1131.729,1745.7421 1128.7011,1735.5169 1142.2764,1726.6665 C1127.3518,1715.9203 1127.2604,1702.1589 1143.0073,1692.0605 C1133.3656,1683.0814 1134.3557,1671.6412 1148.1162,1667.5374 C1131.7158,1642.2906 1134.5688,1624.7068 1167,1618.1199 C1168.9651,1618.9632 1169.3614,1620.7606 1167.3764,1621.9883 " fill="#FFFFFF" filter="url(#fhmrtr28unldw)" style="stroke:#0000FF;stroke-width:4.0;"/><text fill="#000000" font-family="sans-serif" font-size="28" font-style="italic" lengthAdjust="spacing" textLength="118" x="1313" y="1655.1902">«Virtual»</text><text fill="#000000" font-family="sans-serif" font-size="28" font-weight="bold" lengthAdjust="spacing" textLength="84" x="1330" y="1688.1667">Pod A</text><!--MD5=[82b765e2dcbc0bc8303b79fded92335b]
cluster pod_B_2--><path d="M1717.3764,1621.9883 C1722.5386,1603.5879 1738.9168,1603.9541 1749.6181,1616.1517 C1758.6775,1601.753 1769.5531,1601.6483 1779.4367,1615.2747 C1785.6386,1599.1574 1798.8047,1598.1503 1810.0145,1609.7499 C1818.122,1595.3641 1827.7861,1596.4099 1836.9177,1608.7178 C1844.4539,1595.7643 1854.7498,1595.7437 1864.3144,1606.3601 C1872.8873,1589.0281 1883.4808,1591.4062 1894.9793,1603.2892 C1901.7618,1589.8649 1916.9939,1588.2519 1925.7465,1600.9706 C1934.2921,1589.2151 1947.5359,1591.7999 1952.7998,1604.5879 C1962.6899,1589.9384 1974.3277,1589.9347 1982.4877,1606.2469 C1992.3728,1593.6758 2008.3768,1594.8936 2014.4189,1610.5881 C2021.9016,1598.3116 2033.0877,1598.8955 2040.9933,1610.1096 C2055.0783,1596.5581 2066.0278,1600.7083 2073.467,1617.2752 C2081.5007,1605.1437 2090.8023,1605.1609 2097.7447,1618.3227 C2116.1564,1600.7065 2136.5192,1606.0616 2141,1632.1199 C2143.4717,1632.6447 2143.9242,1634.1895 2142.5779,1636.1932 C2159.2685,1642.1484 2163.2949,1651.2253 2152.948,1666.4478 C2167.1129,1670.8668 2170.0316,1679.8413 2161.0079,1691.6702 C2178.2207,1697.5078 2181.1862,1710.176 2166.3864,1721.7397 C2180.4932,1734.1439 2175.7985,1749.2836 2159.4061,1755.3545 C2169.9001,1766.2494 2170.3446,1778.6417 2153.8803,1784.4096 C2162.7069,1810.0636 2156.5704,1824.4571 2127,1824.1199 C2128.8228,1824.9921 2129.1443,1826.7242 2127.3112,1827.8976 C2119.5253,1842.293 2109.9779,1841.1875 2100.92,1829.1685 C2095.2641,1846.1965 2082.5793,1845.6217 2072.0013,1834.1658 C2064.7594,1851.9431 2049.3791,1852.3027 2039.6189,1836.6017 C2032.4887,1849.4312 2021.6685,1854.259 2011.1593,1840.175 C2004.5684,1853.9346 1994.2026,1855.7117 1984.478,1843.3795 C1977.8463,1859.6816 1965.141,1859.6159 1955.4391,1846.4 C1948.3471,1861.5824 1933.6181,1863.4089 1923.7008,1849.4803 C1913.8252,1859.2935 1901.9011,1856.7648 1898.0993,1842.9102 C1887.8906,1857.0474 1871.0945,1856.6233 1864.3766,1839.1823 C1856.6138,1852.0281 1842.6942,1850.6603 1835.7981,1838.2034 C1827.2485,1850.498 1816.8447,1848.388 1810.7033,1835.777 C1800.2254,1852.2498 1788.4407,1848.1215 1778.8168,1834.8611 C1767.8386,1847.355 1753.4109,1844.7684 1750.2395,1827.3922 C1728.3551,1844.9043 1707.6682,1839.6937 1703,1810.1199 C1704.7252,1810.3295 1705.5207,1811.4951 1704.5833,1813.1131 C1689.1064,1806.7804 1686.9221,1792.6114 1698.2501,1780.9934 C1683.2836,1774.8056 1682.5909,1764.0055 1693.5384,1753.3939 C1681.729,1745.7421 1678.7011,1735.5169 1692.2764,1726.6665 C1677.3518,1715.9203 1677.2604,1702.1589 1693.0073,1692.0605 C1683.3656,1683.0814 1684.3557,1671.6412 1698.1162,1667.5374 C1681.7158,1642.2906 1684.5688,1624.7068 1717,1618.1199 C1718.9651,1618.9632 1719.3614,1620.7606 1717.3764,1621.9883 " fill="#FFFFFF" filter="url(#fhmrtr28unldw)" style="stroke:#0000FF;stroke-width:4.0;"/><text fill="#000000" font-family="sans-serif" font-size="28" font-style="italic" lengthAdjust="spacing" textLength="118" x="1863" y="1655.1902">«Virtual»</text><text fill="#000000" font-family="sans-serif" font-size="28" font-weight="bold" lengthAdjust="spacing" textLength="82" x="1881" y="1688.1667">Pod B</text><!--MD5=[b998ca32b7bd28c46d4a05c8236ee861]
entity c_api_gw--><rect fill="#98FB98" filter="url(#fhmrtr28unldw)" height="72.9766" style="stroke:#0000FF;stroke-width:2.0;" width="178" x="528" y="385.1199"/><text fill="#000000" font-family="sans-serif" font-size="28" lengthAdjust="spacing" textLength="138" x="548" y="432.1902">API Server</text><!--MD5=[fe2e62adae7fcde3c97702cb0f810271]
entity c_scheduler--><rect fill="#98FB98" filter="url(#fhmrtr28unldw)" height="72.9766" style="stroke:#0000FF;stroke-width:2.0;" width="176" x="673" y="816.1199"/><text fill="#000000" font-family="sans-serif" font-size="28" lengthAdjust="spacing" textLength="136" x="693" y="863.1902">Scheduler</text><!--MD5=[d1ca885f78aa257b073a591354bdbc78]
entity c_mngr--><rect fill="#98FB98" filter="url(#fhmrtr28unldw)" height="72.9766" style="stroke:#0000FF;stroke-width:2.0;" width="308" x="533" y="624.1199"/><text fill="#000000" font-family="sans-serif" font-size="28" lengthAdjust="spacing" textLength="268" x="553" y="671.1902">Controller Manager</text><!--MD5=[6416fdd64586d703dcc0d798c4068a35]
entity c_etcd--><path d="M552,1028.1199 C552,1008.1199 601,1008.1199 601,1008.1199 C601,1008.1199 650,1008.1199 650,1028.1199 L650,1079.0964 C650,1099.0964 601,1099.0964 601,1099.0964 C601,1099.0964 552,1099.0964 552,1079.0964 L552,1028.1199 " fill="#FFFFFF" filter="url(#fhmrtr28unldw)" style="stroke:#0000FF;stroke-width:2.0;"/><path d="M552,1028.1199 C552,1048.1199 601,1048.1199 601,1048.1199 C601,1048.1199 650,1048.1199 650,1028.1199 " fill="none" style="stroke:#0000FF;stroke-width:2.0;"/><text fill="#000000" font-family="sans-serif" font-size="28" lengthAdjust="spacing" textLength="58" x="572" y="1083.1902">etcd</text><!--MD5=[8bd04f4aa11e9637d99d3c0f12c89e70]
entity kubelet_1--><rect fill="#98FB98" filter="url(#fhmrtr28unldw)" height="72.9766" style="stroke:#0000FF;stroke-width:2.0;" width="144" x="635" y="1290.1199"/><text fill="#000000" font-family="sans-serif" font-size="28" lengthAdjust="spacing" textLength="104" x="655" y="1337.1902">Kubelet</text><!--MD5=[84858f3533922ba37c13f4b7e9ad6732]
entity proxy_1--><rect fill="#98FB98" filter="url(#fhmrtr28unldw)" height="72.9766" style="stroke:#0000FF;stroke-width:2.0;" width="204" x="717" y="1912.1199"/><text fill="#000000" font-family="sans-serif" font-size="28" lengthAdjust="spacing" textLength="164" x="737" y="1959.1902">Kube-Proxy</text><!--MD5=[3f2523423f826911ee06d9183df8d162]
entity docker_1--><rect fill="#98FB98" filter="url(#fhmrtr28unldw)" height="72.9766" style="stroke:#0000FF;stroke-width:2.0;" width="298" x="526" y="1482.1199"/><text fill="#000000" font-family="sans-serif" font-size="28" lengthAdjust="spacing" textLength="258" x="546" y="1529.1902">Container Runtime</text><!--MD5=[05ebe79992c94fc4a552727940ece006]
entity container_A_1--><rect fill="#98FB98" filter="url(#fhmrtr28unldw)" height="72.9766" style="stroke:#0000FF;stroke-width:2.0;" width="334" x="578" y="1720.1199"/><text fill="#000000" font-family="sans-serif" font-size="28" lengthAdjust="spacing" textLength="294" x="598" y="1767.1902">Application container</text><!--MD5=[aeeb51c4c0ffbf83356f51cdde10cc7e]
entity kubelet_2--><rect fill="#98FB98" filter="url(#fhmrtr28unldw)" height="72.9766" style="stroke:#0000FF;stroke-width:2.0;" width="144" x="1143" y="1290.1199"/><text fill="#000000" font-family="sans-serif" font-size="28" lengthAdjust="spacing" textLength="104" x="1163" y="1337.1902">Kubelet</text><!--MD5=[6a448ea47697550857a2487923e142fa]
entity proxy_2--><rect fill="#98FB98" filter="url(#fhmrtr28unldw)" height="72.9766" style="stroke:#0000FF;stroke-width:2.0;" width="204" x="1289" y="1912.1199"/><text fill="#000000" font-family="sans-serif" font-size="28" lengthAdjust="spacing" textLength="164" x="1309" y="1959.1902">Kube-Proxy</text><!--MD5=[c65c32c5e05c98e6d30722af9076d4a8]
entity docker_2--><rect fill="#98FB98" filter="url(#fhmrtr28unldw)" height="72.9766" style="stroke:#0000FF;stroke-width:2.0;" width="298" x="1106" y="1482.1199"/><text fill="#000000" font-family="sans-serif" font-size="28" lengthAdjust="spacing" textLength="258" x="1126" y="1529.1902">Container Runtime</text><!--MD5=[bf10c801e35bff5aa101b9eaf69cadda]
entity container_A_2--><rect fill="#98FB98" filter="url(#fhmrtr28unldw)" height="72.9766" style="stroke:#0000FF;stroke-width:2.0;" width="334" x="1224" y="1720.1199"/><text fill="#000000" font-family="sans-serif" font-size="28" lengthAdjust="spacing" textLength="294" x="1244" y="1767.1902">Application container</text><!--MD5=[fd395f2f3cf3ab5a5cf3fa6f4a2e6f99]
entity container_B_2--><rect fill="#98FB98" filter="url(#fhmrtr28unldw)" height="72.9766" style="stroke:#0000FF;stroke-width:2.0;" width="334" x="1774" y="1720.1199"/><text fill="#000000" font-family="sans-serif" font-size="28" lengthAdjust="spacing" textLength="294" x="1794" y="1767.1902">Application container</text><!--MD5=[f861f1dc2eb8149d41e33075cef353fa]
entity service_a--><path d="M1064.6401,2120.8937 C1073.9713,2107.7539 1084.4656,2108.6458 1092.5667,2122.1814 C1098.4372,2111.2301 1108.8409,2109.9003 1115.2787,2121.6129 C1121.2807,2111.0182 1133.4219,2110.504 1139.7712,2121.2135 C1147.5266,2106.9543 1159.1518,2106.7283 1166.6853,2121.4198 C1172.5966,2110.0186 1185.2193,2108.6716 1193.0706,2119.0719 C1202.5648,2109.7575 1210.4092,2107.4686 1217.467,2121.6064 C1228.0497,2127.3331 1228.4965,2138.5 1218.9044,2145.4432 C1230.7034,2152.9238 1232.3763,2161.61 1219.961,2170.1272 C1231.1415,2179.3512 1228.5224,2186.1014 1217.7278,2193.1983 C1229.0305,2200.0573 1230.0405,2207.3561 1219.3467,2215.7913 C1213.2842,2230.6328 1201.6309,2229.4325 1192.964,2218.4523 C1187.7693,2231.5992 1177.1797,2234.4041 1166.7496,2224.3739 C1160.8954,2237.0758 1148.9986,2241.2698 1139.054,2228.8908 C1130.0939,2239.9145 1121.8013,2237.2709 1115.939,2225.7191 C1105.8473,2235.6931 1096.4504,2233.8745 1090.7034,2220.9342 C1080.5802,2231.8268 1071.634,2227.035 1066.7129,2215.3954 C1055.8798,2212.1789 1051.3113,2201.9067 1060.7583,2193.2397 C1047.0127,2190.5122 1042.6463,2179.8204 1052.4411,2169.0117 C1043.819,2159.4421 1046.7006,2148.7143 1059.451,2145.523 C1047.9505,2134.7917 1050.2631,2126.173 1064.6401,2120.8937 " fill="#D3D3D3" filter="url(#fhmrtr28unldw)" style="stroke:#0000FF;stroke-width:2.0;"/><text fill="#000000" font-family="sans-serif" font-size="28" font-style="italic" lengthAdjust="spacing" textLength="118" x="1080" y="2161.1902">«Virtual»</text><text fill="#000000" font-family="sans-serif" font-size="28" lengthAdjust="spacing" textLength="124" x="1077" y="2194.1667">Service A</text><!--MD5=[da4040cd8749b8929195350041ef32c7]
entity service_b--><path d="M1320.1321,2121.5123 C1326.7707,2111.2377 1336.9073,2109.1695 1343.9841,2121.0403 C1351.3536,2107.6292 1363.4389,2108.7054 1369.4669,2122.3059 C1373.3448,2110.3417 1383.1429,2109.8723 1391.3754,2117.4152 C1398.8388,2106.5586 1411.0999,2106.2797 1417.982,2118.0975 C1426.8611,2106.4204 1434.6289,2109.0367 1441.2611,2120.3705 C1451.1759,2110.6552 1461.4087,2111.8535 1468.0762,2124.2997 C1480.9498,2125.502 1485.8924,2134.9516 1477.897,2145.7213 C1492.3622,2147.2754 1496.7206,2158.0929 1486.6844,2168.9256 C1494.8873,2179.0388 1492.5492,2190.1572 1478.0301,2191.5966 C1487.7015,2203.5286 1480.2752,2213.2532 1467.4985,2215.1462 C1459.0445,2228.9274 1450.4385,2229.002 1441.8983,2215.2263 C1436.3522,2227.04 1427.5867,2226.6208 1419.3608,2218.2131 C1410.2141,2231.4777 1400.299,2232.2582 1392.1263,2217.2741 C1385.6724,2228.92 1375.6884,2229.8369 1368.2744,2218.2603 C1358.7561,2228.1701 1351.4302,2226.3158 1344.1936,2215.5968 C1335.4453,2227.2744 1327.4777,2227.5093 1319.8534,2214.4891 C1306.2977,2210.3757 1307.1544,2200.998 1314.6169,2191.9923 C1301.222,2189.2834 1294.9355,2179.9935 1304.8291,2167.8449 C1295.61,2158.2864 1299.5818,2148.5974 1310.8595,2144.2852 C1301.9877,2133.1471 1305.5763,2123.1113 1320.1321,2121.5123 " fill="#D3D3D3" filter="url(#fhmrtr28unldw)" style="stroke:#0000FF;stroke-width:2.0;"/><text fill="#000000" font-family="sans-serif" font-size="28" font-style="italic" lengthAdjust="spacing" textLength="118" x="1332" y="2161.1902">«Virtual»</text><text fill="#000000" font-family="sans-serif" font-size="28" lengthAdjust="spacing" textLength="120" x="1331" y="2194.1667">Service B</text><!--MD5=[967c2b1a156e498aabfdc089710fb9a5]
entity ingress--><path d="M1195.8021,2368.1658 C1202.5574,2358.1577 1211.8857,2358.0573 1219.0406,2367.6931 C1223.82,2354.4935 1234.1647,2354.8871 1242.1965,2364.3733 C1250.3383,2354.7531 1259.8488,2355.6543 1266.3648,2366.3111 C1272.6003,2353.9374 1285.017,2353.7946 1291.7403,2365.8034 C1299.4019,2356.3062 1308.0424,2357.2031 1314.1848,2367.5239 C1325.1595,2354.451 1333.2589,2357.3646 1341.7532,2370.1666 C1355.0818,2372.7499 1358.6296,2383.9891 1348.2154,2393.2261 C1359.8683,2398.005 1362.6569,2406.3644 1353.0759,2415.7296 C1361.5485,2425.7378 1357.3821,2436.417 1345.0743,2439.4007 C1356.5067,2448.5538 1352.742,2457.9796 1340.7189,2462.7591 C1336.5209,2476.0528 1325.3654,2477.7562 1317.3627,2466.358 C1312.6472,2478.8531 1301.235,2480.9504 1292.0327,2471.5483 C1289.3951,2485.9391 1277.5445,2487.2948 1267.8455,2479.1158 C1256.6191,2490.5092 1243.95,2485.1576 1241.236,2470.4406 C1232.7334,2480.068 1224.1795,2480.4074 1218.4681,2467.607 C1207.4627,2476.6875 1199.236,2476.9792 1192.602,2462.755 C1178.8662,2458.1193 1178.1576,2449.7832 1185.5705,2438.9109 C1172.0615,2435.2809 1168.6738,2425.7337 1177.2592,2414.5619 C1169.249,2403.8939 1173.2063,2395.8248 1185.7384,2393.3798 C1177.7375,2381.9349 1182.1547,2370.9702 1195.8021,2368.1658 " fill="#D3D3D3" filter="url(#fhmrtr28unldw)" style="stroke:#0000FF;stroke-width:2.0;"/><text fill="#000000" font-family="sans-serif" font-size="28" font-style="italic" lengthAdjust="spacing" textLength="118" x="1206" y="2407.1902">«Virtual»</text><text fill="#000000" font-family="sans-serif" font-size="28" lengthAdjust="spacing" textLength="100" x="1215" y="2440.1667">Ingress</text><!--MD5=[c251b62818238b6f79269adc5bf7d1e2]
entity cli--><ellipse cx="179" cy="358.1199" fill="#FEFECE" filter="url(#fhmrtr28unldw)" rx="16" ry="16" style="stroke:#000000;stroke-width:4.0;"/><path d="M179,374.1199 L179,428.1199 M153,390.1199 L205,390.1199 M179,428.1199 L153,458.1199 M179,428.1199 L205,458.1199 " fill="none" filter="url(#fhmrtr28unldw)" style="stroke:#000000;stroke-width:4.0;"/><text fill="#000000" font-family="sans-serif" font-size="28" lengthAdjust="spacing" textLength="334" x="12" y="499.1902">Command Line Interface</text><!--MD5=[ca62b0302fe1d253e589290bd9031d67]
entity ext_call--><ellipse cx="1265" cy="2616.1199" fill="#FEFECE" filter="url(#fhmrtr28unldw)" rx="16" ry="16" style="stroke:#000000;stroke-width:4.0;"/><path d="M1265,2632.1199 L1265,2686.1199 M1239,2648.1199 L1291,2648.1199 M1265,2686.1199 L1239,2716.1199 M1265,2686.1199 L1291,2716.1199 " fill="none" filter="url(#fhmrtr28unldw)" style="stroke:#000000;stroke-width:4.0;"/><text fill="#000000" font-family="sans-serif" font-size="28" lengthAdjust="spacing" textLength="262" x="1134" y="2757.1902">Calls to application</text><!--MD5=[a2613a65dd1b556a87a6a8d0348ec229]
link c_api_gw to c_scheduler--><path d="M691.94,457.1399 C754.28,489.9999 838.78,546.2799 877,624.1199 C908.78,688.8599 852.62,763.1199 807.9,808.2999 " fill="none" id="c_api_gw-to-c_scheduler" style="stroke:#0000FF;stroke-width:2.0;"/><polygon fill="#0000FF" points="800.28,815.8599,818.6933,808.8633,807.3796,808.8175,807.4254,797.5039,800.28,815.8599" style="stroke:#0000FF;stroke-width:2.0;"/><!--MD5=[cf3a9bf2f149d4411c410e6232d73a63]
link c_api_gw to c_mngr--><path d="M627.18,457.2999 C639.52,498.7199 660.34,568.5999 673.86,614.0399 " fill="none" id="c_api_gw-to-c_mngr" style="stroke:#0000FF;stroke-width:2.0;"/><polygon fill="#0000FF" points="676.8,623.8999,679.3171,604.3636,673.9396,614.3177,663.9856,608.9402,676.8,623.8999" style="stroke:#0000FF;stroke-width:2.0;"/><!--MD5=[b8108d9a54ad373bc27d6e2edaaf22a1]
link c_api_gw to c_etcd--><path d="M588.98,457.5199 C559.94,495.5999 516.4,560.0799 499,624.1199 C462.6,758.0599 529.58,917.4999 571.3,998.3999 " fill="none" id="c_api_gw-to-c_etcd" style="stroke:#0000FF;stroke-width:2.0;stroke-dasharray:7.0,7.0;"/><polygon fill="#0000FF" points="576.26,1007.8599,575.0135,988.2016,571.6285,998.9971,560.833,995.6121,576.26,1007.8599" style="stroke:#0000FF;stroke-width:2.0;"/><!--MD5=[99c5f74af3bb9c5d435e49e8e14e3e15]
link c_scheduler to c_etcd--><path d="M733.14,888.4399 C708.16,919.1799 671.18,964.6999 642.7,999.7799 " fill="none" id="c_scheduler-to-c_etcd" style="stroke:#0000FF;stroke-width:2.0;stroke-dasharray:7.0,7.0;"/><polygon fill="#0000FF" points="636.38,1007.5599,653.9556,998.6662,642.6999,999.8101,641.556,988.5544,636.38,1007.5599" style="stroke:#0000FF;stroke-width:2.0;"/><!--MD5=[517bbf51bfdced79c276139c9a398695]
link c_mngr to c_etcd--><path d="M674.72,696.5999 C664.04,727.5599 648.82,774.4199 639,816.1199 C624.56,877.4599 613.84,949.0799 607.54,996.9999 " fill="none" id="c_mngr-to-c_etcd" style="stroke:#0000FF;stroke-width:2.0;stroke-dasharray:7.0,7.0;"/><polygon fill="#0000FF" points="606.18,1007.4399,616.4285,990.6182,607.4661,997.5229,600.5613,988.5605,606.18,1007.4399" style="stroke:#0000FF;stroke-width:2.0;"/><!--MD5=[20301efd405f69023c680b4e9f6c7e53]
link c_mngr to c_scheduler--><path d="M700.58,696.5999 C712.68,727.3399 730.46,772.5199 743.6,805.8999 " fill="none" id="c_mngr-to-c_scheduler" style="stroke:#0000FF;stroke-width:2.0;"/><polygon fill="#0000FF" points="747.52,815.8599,748.315,796.1782,743.8308,806.5653,733.4437,802.081,747.52,815.8599" style="stroke:#0000FF;stroke-width:2.0;"/><!--MD5=[446f19e9294d729989269a70006fa0b0]
link kubelet_1 to docker_1--><path d="M701.14,1362.5999 C695.9,1393.3399 688.2,1438.5199 682.52,1471.8999 " fill="none" id="kubelet_1-to-docker_1" style="stroke:#0000FF;stroke-width:2.0;"/><polygon fill="#0000FF" points="680.84,1481.8599,691.7135,1465.4353,682.4979,1471.9983,675.9349,1462.7827,680.84,1481.8599" style="stroke:#0000FF;stroke-width:2.0;"/><!--MD5=[19415d5ff99f79f46300f4ed8510fb92]
link docker_1 to pod_A_1--><path d="M562.08,1554.4199 C555.8,1559.0199 550,1564.2199 545,1570.1199 C538.3525,1577.9549 532.7656,1586.6477 528.079,1595.8686 C527.4932,1597.0212 526.9214,1598.1821 526.3634,1599.3505 C526.0844,1599.9348 525.8088,1600.5209 525.5366,1601.1089 C525.4006,1601.4028 525.2653,1601.6973 525.1309,1601.9922 " fill="none" id="docker_1-to-pod_A_1" style="stroke:#0000FF;stroke-width:2.0;stroke-dasharray:7.0,7.0;"/><polygon fill="#0000FF" points="525.1309,1601.9922,539.8753,1588.9306,529.278,1592.8926,525.316,1582.2953,525.1309,1601.9922" style="stroke:#0000FF;stroke-width:2.0;"/><!--MD5=[e112ae0d2d70384657e89de5c1e68ffa]
reverse link container_A_1 to proxy_1--><path d="M762.5,1802.5799 C775.66,1836.0199 793.44,1881.1799 805.52,1911.8599 " fill="none" id="container_A_1-backto-proxy_1" style="stroke:#0000FF;stroke-width:2.0;"/><polygon fill="#0000FF" points="758.58,1792.5999,757.712,1812.2784,762.2348,1801.9081,772.6051,1806.4308,758.58,1792.5999" style="stroke:#0000FF;stroke-width:2.0;"/><!--MD5=[34391875923fb92a939068e7b9d3c41f]
link kubelet_2 to docker_2--><path d="M1222.34,1362.5999 C1228.88,1393.3399 1238.48,1438.5199 1245.6,1471.8999 " fill="none" id="kubelet_2-to-docker_2" style="stroke:#0000FF;stroke-width:2.0;"/><polygon fill="#0000FF" points="1247.7,1481.8599,1251.7778,1462.5889,1245.6183,1472.0789,1236.1283,1465.9195,1247.7,1481.8599" style="stroke:#0000FF;stroke-width:2.0;"/><!--MD5=[d34f9fcd480508698b04eb55ecaf7d60]
link docker_2 to pod_A_2--><path d="M1203.36,1554.7399 C1198.68,1559.4599 1194.42,1564.5999 1191,1570.1199 C1185.6675,1578.7099 1181.0694,1587.9177 1177.1059,1597.4677 C1176.6105,1598.6615 1176.125,1599.8606 1175.6492,1601.0645 C1175.5303,1601.3655 1175.4119,1601.6667 1175.2942,1601.9683 " fill="none" id="docker_2-to-pod_A_2" style="stroke:#0000FF;stroke-width:2.0;stroke-dasharray:7.0,7.0;"/><polygon fill="#0000FF" points="1175.2942,1601.9683,1189.2925,1588.1102,1178.9309,1592.6531,1174.3881,1582.2914,1175.2942,1601.9683" style="stroke:#0000FF;stroke-width:2.0;"/><!--MD5=[21f114e2504560302b207b3fc892cf0e]
link docker_2 to pod_B_2--><path d="M1404.78,1529.9799 C1479.46,1537.3399 1560.28,1549.7399 1591,1570.1199 C1630.26,1596.1699 1658.005,1641.1499 1676.06,1680.1149 C1678.3169,1684.9855 1680.4223,1689.7621 1682.38,1694.3961 C1683.3588,1696.713 1684.3006,1698.9943 1685.206,1701.2339 C1685.6586,1702.3536 1686.1022,1703.4629 1686.5367,1704.5611 C1686.6453,1704.8356 1686.7533,1705.1094 1686.8608,1705.3825 " fill="none" id="docker_2-to-pod_B_2" style="stroke:#0000FF;stroke-width:2.0;stroke-dasharray:7.0,7.0;"/><polygon fill="#0000FF" points="1686.8608,1705.3825,1687.7134,1685.7033,1683.1987,1696.0772,1672.8248,1691.5626,1686.8608,1705.3825" style="stroke:#0000FF;stroke-width:2.0;"/><!--MD5=[393e4ebd340060e126d663d5631ee120]
reverse link container_A_2 to proxy_2--><path d="M1391,1803.4399 C1391,1836.7999 1391,1881.4399 1391,1911.8599 " fill="none" id="container_A_2-backto-proxy_2" style="stroke:#0000FF;stroke-width:2.0;"/><polygon fill="#0000FF" points="1391,1792.5999,1383,1810.5999,1391,1802.5999,1399,1810.5999,1391,1792.5999" style="stroke:#0000FF;stroke-width:2.0;"/><!--MD5=[07e0f25445126094d9c48cd6625418f7]
reverse link container_B_2 to proxy_2--><path d="M1891.08,1798.3399 C1857.78,1823.1999 1812.02,1853.7599 1767,1872.1199 C1678.6,1908.1599 1571.16,1927.0599 1493.8,1936.6999 " fill="none" id="container_B_2-backto-proxy_2" style="stroke:#0000FF;stroke-width:2.0;"/><polygon fill="#0000FF" points="1899.28,1792.1399,1880.0901,1796.5837,1891.2937,1798.1581,1889.7193,1809.3617,1899.28,1792.1399" style="stroke:#0000FF;stroke-width:2.0;"/><!--MD5=[6bac4bb3b37b26b15efde042d538c982]
reverse link proxy_1 to service_a--><path d="M878.34,1989.9999 C925.92,2021.9599 993.5,2067.3599 1047.92,2103.9199 " fill="none" id="proxy_1-backto-service_a" style="stroke:#0000FF;stroke-width:2.0;"/><polygon fill="#0000FF" points="869.7,1984.1799,880.1732,2000.8626,877.9984,1989.7598,889.1011,1987.5851,869.7,1984.1799" style="stroke:#0000FF;stroke-width:2.0;"/><!--MD5=[dbfcf32404e43593d63d053375818af4]
reverse link proxy_2 to service_a--><path d="M1342.86,1991.1999 C1305.48,2023.0999 1253.04,2067.8199 1210.72,2103.9199 " fill="none" id="proxy_2-backto-service_a" style="stroke:#0000FF;stroke-width:2.0;"/><polygon fill="#0000FF" points="1351.06,1984.1799,1332.1748,1989.7791,1343.4533,1990.6713,1342.5611,2001.9498,1351.06,1984.1799" style="stroke:#0000FF;stroke-width:2.0;"/><!--MD5=[4c56de450daa0a95fd7584b3ade0939d]
reverse link proxy_2 to service_b--><path d="M1391,1994.8999 C1391,2026.4399 1391,2069.0599 1391,2103.7599 " fill="none" id="proxy_2-backto-service_b" style="stroke:#0000FF;stroke-width:2.0;"/><polygon fill="#0000FF" points="1391,1984.6599,1383,2002.6599,1391,1994.6599,1399,2002.6599,1391,1984.6599" style="stroke:#0000FF;stroke-width:2.0;"/><!--MD5=[a6469b7f271a787c0db9f355e5841576]
reverse link service_a to ingress--><path d="M1175.82,2239.8599 C1194.02,2274.7999 1215.76,2316.5399 1233.22,2350.0799 " fill="none" id="service_a-backto-ingress" style="stroke:#0000FF;stroke-width:2.0;"/><polygon fill="#0000FF" points="1170.8,2230.1799,1172.0205,2249.8397,1175.4198,2239.0488,1186.2108,2242.448,1170.8,2230.1799" style="stroke:#0000FF;stroke-width:2.0;"/><!--MD5=[62dc1bfc505047b2895c34d6efd4f5f3]
reverse link service_b to ingress--><path d="M1354.18,2239.8599 C1335.98,2274.7999 1314.24,2316.5399 1296.78,2350.0799 " fill="none" id="service_b-backto-ingress" style="stroke:#0000FF;stroke-width:2.0;"/><polygon fill="#0000FF" points="1359.2,2230.1799,1343.7892,2242.448,1354.5802,2239.0488,1357.9795,2249.8397,1359.2,2230.1799" style="stroke:#0000FF;stroke-width:2.0;"/><!--MD5=[cbc05ccc6161b100bbf57798ece3ba83]
link cli to c_api_gw--><path d="M346.68,421.1199 C403.5,421.1199 460.34,421.1199 517.16,421.1199 " fill="none" id="cli-to-c_api_gw" style="stroke:#0000FF;stroke-width:2.0;"/><polygon fill="#0000FF" points="527.78,421.1199,509.78,413.1199,517.78,421.1199,509.78,429.1199,527.78,421.1199" style="stroke:#0000FF;stroke-width:2.0;"/><!--MD5=[79feced4351fd6a69fb3c2dbf2977874]
reverse link ingress to ext_call--><path d="M1265,2486.7399 C1265,2520.2999 1265,2560.4799 1265,2595.2399 " fill="none" id="ingress-backto-ext_call" style="stroke:#0000FF;stroke-width:2.0;"/><polygon fill="#0000FF" points="1265,2476.5399,1257,2494.5399,1265,2486.5399,1273,2494.5399,1265,2476.5399" style="stroke:#0000FF;stroke-width:2.0;"/><!--MD5=[9aba428db332d5a669a41eaaff132fcf]
link c_scheduler to kubelet_1--><path d="M757.02,888.6799 C747.42,972.3799 722.88,1185.8799 712.16,1279.2599 " fill="none" id="c_scheduler-to-kubelet_1" style="stroke:#0000FF;stroke-width:2.0;"/><polygon fill="#0000FF" points="710.98,1289.4999,720.9831,1272.5311,712.1219,1279.5653,705.0878,1270.7041,710.98,1289.4999" style="stroke:#0000FF;stroke-width:2.0;"/><!--MD5=[ee58ded3d86fde69614827367ce6ce48]
link c_scheduler to kubelet_2--><path d="M794.38,888.6799 C876.04,973.2199 1085.66,1190.2399 1174.38,1282.0599 " fill="none" id="c_scheduler-to-kubelet_2" style="stroke:#0000FF;stroke-width:2.0;"/><polygon fill="#0000FF" points="1181.56,1289.4999,1174.8243,1270.9896,1174.6186,1282.3014,1163.3068,1282.0958,1181.56,1289.4999" style="stroke:#0000FF;stroke-width:2.0;"/><!--MD5=[08a36c4bb258238f610d8c0eeb8e100f]
@startuml
<style>
' TODO: Export to a generic style sheet
componentDiagram {
    LineColor blue
    TextColor blue

    agent {
        BackGroundColor palegreen
    }
    .Virtual {
        BackGroundColor lightgray
    }
    database {
        BackGroundColor white
    }
    actor {
        LineColor black
    }
}
document {
  BackGroundColor white
}
</style>

title Kubernetes Cluster Architecture

actor "Command Line Interface" as cli
actor "Calls to application" as ext_call

cloud Cluster as cluster <<Virtual>> {
    node "Kubernetes Controller(s)" as controller <<Concrete>> {
        agent "API Server" as c_api_gw
        agent "Scheduler" as c_scheduler
        agent "Controller Manager" as c_mngr
        database "etcd" as c_etcd

        c_api_gw - -> c_scheduler
        c_api_gw - -> c_mngr
        c_api_gw ..> c_etcd

        c_scheduler ..> c_etcd

        c_mngr ..> c_etcd
        c_mngr - -> c_scheduler

    }

    node "Node 1" as kube_worker_1 <<Concrete>> {
        agent "Kubelet" as kubelet_1
        agent "Kube-Proxy" as proxy_1
        agent "Container Runtime" as docker_1

        cloud "Pod A" as pod_A_1 <<Virtual>> {
            agent "Application container" as container_A_1
        }

        kubelet_1 - -> docker_1
        docker_1 ..> pod_A_1

        container_A_1 <- - proxy_1
    }

    node "Node N" as kube_worker_2 <<Concrete>> {
        agent "Kubelet" as kubelet_2
        agent "Kube-Proxy" as proxy_2
        agent "Container Runtime" as docker_2

        cloud "Pod A" as pod_A_2 <<Virtual>> {
            agent "Application container" as container_A_2
        }
        cloud "Pod B" as pod_B_2 <<Virtual>> {
            agent "Application container" as container_B_2
        }

        kubelet_2 - -> docker_2
        docker_2 ..> pod_A_2
        docker_2 ..> pod_B_2

        container_A_2 <- - proxy_2
        container_B_2 <- - proxy_2
    }

    cloud "Service A" as service_a <<Virtual>> {
    }

    cloud "Service B" as service_b <<Virtual>> {
    }

    cloud "Ingress" as ingress <<Virtual>> {
    }

    proxy_1 <- - service_a
    proxy_2 <- - service_a
    proxy_2 <- - service_b

    service_a <- - ingress
    service_b <- - ingress
}


cli -> c_api_gw
ingress <- - ext_call


c_scheduler - - -> kubelet_1
c_scheduler - - -> kubelet_2
@enduml

@startuml
<style>
componentDiagram {
    LineColor blue
    TextColor blue

    agent {
        BackGroundColor palegreen
    }
    .Virtual {
        BackGroundColor lightgray
    }
    database {
        BackGroundColor white
    }
    actor {
        LineColor black
    }
}
document {
  BackGroundColor white
}
</style>

title Kubernetes Cluster Architecture

actor "Command Line Interface" as cli
actor "Calls to application" as ext_call

cloud Cluster as cluster <<Virtual>> {
    node "Kubernetes Controller(s)" as controller <<Concrete>> {
        agent "API Server" as c_api_gw
        agent "Scheduler" as c_scheduler
        agent "Controller Manager" as c_mngr
        database "etcd" as c_etcd

        c_api_gw - -> c_scheduler
        c_api_gw - -> c_mngr
        c_api_gw ..> c_etcd

        c_scheduler ..> c_etcd

        c_mngr ..> c_etcd
        c_mngr - -> c_scheduler

    }

    node "Node 1" as kube_worker_1 <<Concrete>> {
        agent "Kubelet" as kubelet_1
        agent "Kube-Proxy" as proxy_1
        agent "Container Runtime" as docker_1

        cloud "Pod A" as pod_A_1 <<Virtual>> {
            agent "Application container" as container_A_1
        }

        kubelet_1 - -> docker_1
        docker_1 ..> pod_A_1

        container_A_1 <- - proxy_1
    }

    node "Node N" as kube_worker_2 <<Concrete>> {
        agent "Kubelet" as kubelet_2
        agent "Kube-Proxy" as proxy_2
        agent "Container Runtime" as docker_2

        cloud "Pod A" as pod_A_2 <<Virtual>> {
            agent "Application container" as container_A_2
        }
        cloud "Pod B" as pod_B_2 <<Virtual>> {
            agent "Application container" as container_B_2
        }

        kubelet_2 - -> docker_2
        docker_2 ..> pod_A_2
        docker_2 ..> pod_B_2

        container_A_2 <- - proxy_2
        container_B_2 <- - proxy_2
    }

    cloud "Service A" as service_a <<Virtual>> {
    }

    cloud "Service B" as service_b <<Virtual>> {
    }

    cloud "Ingress" as ingress <<Virtual>> {
    }

    proxy_1 <- - service_a
    proxy_2 <- - service_a
    proxy_2 <- - service_b

    service_a <- - ingress
    service_b <- - ingress
}


cli -> c_api_gw
ingress <- - ext_call


c_scheduler - - -> kubelet_1
c_scheduler - - -> kubelet_2
@enduml

PlantUML version 1.2021.4(Sun Apr 04 10:49:39 CEST 2021)
(GPL source distribution)
Java Runtime: OpenJDK Runtime Environment
JVM: OpenJDK 64-Bit Server VM
Default Encoding: UTF-8
Language: fr
Country: LU
--></g></svg>